<svg id="affiliate-network" xmlns="http://www.w3.org/2000/svg" width="60" height="60" viewBox="0 0 60 60">
  <path id="Path_150" data-name="Path 150" d="M31.564,30.374a3.647,3.647,0,1,1,3.647-3.647A3.651,3.651,0,0,1,31.564,30.374Zm0-5.484a1.828,1.828,0,1,0,1.828,1.828A1.83,1.83,0,0,0,31.564,24.889Zm5.625,13.388H25.939a.9.9,0,0,1-.909-.909,6.534,6.534,0,1,1,13.069,0A.9.9,0,0,1,37.189,38.277ZM26.933,36.458H36.2a4.718,4.718,0,0,0-9.263,0Z" transform="translate(-1.564 -1.442)" fill="#fff"/>
  <path id="Path_151" data-name="Path 151" d="M30,42.366A12.366,12.366,0,1,1,42.366,30,12.383,12.383,0,0,1,30,42.366Zm0-22.912A10.547,10.547,0,1,0,40.547,30,10.563,10.563,0,0,0,30,19.453Zm0-3.478a.9.9,0,0,1-.909-.909v-5.6a.909.909,0,1,1,1.819,0v5.6a.91.91,0,0,1-.909.909Zm0-8.438a3.769,3.769,0,1,1,3.769-3.769A3.769,3.769,0,0,1,30,7.538Zm0-5.719a1.95,1.95,0,1,0,1.95,1.95A1.949,1.949,0,0,0,30,1.819ZM19.444,20.344a.907.907,0,0,1-.647-.263l-3.956-3.956a.908.908,0,1,1,1.284-1.284L20.081,18.8a.906.906,0,0,1-.637,1.547Zm-8-5.128a3.725,3.725,0,0,1-2.662-1.106,3.766,3.766,0,1,1,5.325,0,3.725,3.725,0,0,1-2.663,1.106Zm0-5.709a1.95,1.95,0,1,0,1.378.572,1.907,1.907,0,0,0-1.378-.572Zm3.619,21.4h-5.6a.909.909,0,1,1,0-1.819h5.6a.909.909,0,1,1,0,1.819Zm-11.3,2.859A3.769,3.769,0,1,1,7.538,30,3.769,3.769,0,0,1,3.769,33.769Zm0-5.719A1.95,1.95,0,1,0,5.719,30,1.949,1.949,0,0,0,3.769,28.05ZM15.478,45.431a.906.906,0,0,1-.647-1.547l3.956-3.956a.908.908,0,0,1,1.284,1.284l-3.956,3.956a.909.909,0,0,1-.637.262Zm-4.031,6.881a3.725,3.725,0,0,1-2.662-1.106,3.766,3.766,0,1,1,5.325,0,3.725,3.725,0,0,1-2.663,1.106Zm-1.378-5.138a1.949,1.949,0,1,0,2.756,0A1.952,1.952,0,0,0,10.069,47.175ZM30,51.441a.9.9,0,0,1-.909-.909v-5.6a.909.909,0,0,1,1.819,0v5.6A.9.9,0,0,1,30,51.441ZM30,60a3.769,3.769,0,1,1,3.769-3.769A3.769,3.769,0,0,1,30,60Zm0-5.719a1.95,1.95,0,1,0,1.95,1.95A1.949,1.949,0,0,0,30,54.281Zm14.522-8.85a.907.907,0,0,1-.647-.262l-3.956-3.956A.908.908,0,0,1,41.2,39.928l3.956,3.956a.906.906,0,0,1-.638,1.547Zm4.031,6.881a3.773,3.773,0,1,1,2.663-1.106A3.707,3.707,0,0,1,48.553,52.313Zm0-5.709a1.952,1.952,0,0,0-1.378,3.328,2,2,0,0,0,2.756,0A1.952,1.952,0,0,0,48.553,46.6Zm1.978-15.694h-5.6a.909.909,0,0,1,0-1.819h5.6a.909.909,0,0,1,0,1.819Zm5.7,2.859A3.769,3.769,0,1,1,60,30,3.769,3.769,0,0,1,56.231,33.769Zm0-5.719A1.95,1.95,0,1,0,58.181,30,1.949,1.949,0,0,0,56.231,28.05ZM40.566,20.344a.906.906,0,0,1-.647-1.547l3.956-3.956a.908.908,0,0,1,1.284,1.284L41.2,20.081a.9.9,0,0,1-.638.263Zm7.987-5.128a3.773,3.773,0,1,1,2.663-1.106A3.745,3.745,0,0,1,48.553,15.216Zm0-5.709a1.952,1.952,0,0,0-1.378,3.328,1.987,1.987,0,0,0,2.756,0,1.952,1.952,0,0,0-1.378-3.328Z" transform="translate(0 0)" fill="#fff"/>
</svg>
