<svg xmlns="http://www.w3.org/2000/svg" width="231.987" height="32.223" viewBox="0 0 231.987 32.223">
  <g id="Rank-My-Business_Complete-Logo_03" transform="translate(-51.63 -54.32)">
    <g id="Group_43" data-name="Group 43" transform="translate(94.781 63.56)">
      <path id="Path_93" data-name="Path 93" d="M206.787,98.845h-4.163L199.029,94H197.45v4.847h-3.39V85.63h5.717a13.25,13.25,0,0,1,2.015.133,4.348,4.348,0,0,1,1.578.576,3.469,3.469,0,0,1,1.185,1.148,3.282,3.282,0,0,1,.439,1.769,3.937,3.937,0,0,1-.679,2.387,5.132,5.132,0,0,1-1.939,1.536l4.411,5.662Zm-5.317-9.168a1.678,1.678,0,0,0-.2-.851,1.375,1.375,0,0,0-.7-.56,2.613,2.613,0,0,0-.809-.173c-.309-.021-.667-.03-1.072-.03h-1.233v3.56H198.5a10.036,10.036,0,0,0,1.366-.079,1.992,1.992,0,0,0,.924-.364,1.732,1.732,0,0,0,.518-.609,2.042,2.042,0,0,0,.164-.891Z" transform="translate(-194.06 -85.385)" fill="#fff"/>
      <path id="Path_94" data-name="Path 94" d="M247.108,98.845h-3.52l-.921-2.672h-4.89l-.921,2.672H233.42L238.3,85.63h3.923L247.1,98.845Zm-5.259-5.093-1.627-4.735-1.627,4.735h3.251Z" transform="translate(-221.495 -85.385)" fill="#fff"/>
      <path id="Path_95" data-name="Path 95" d="M294.188,98.845H290.9l-5.611-9.071v9.071H282.17V85.63h4.075l4.82,7.571V85.63h3.124Z" transform="translate(-255.476 -85.385)" fill="#fff"/>
      <path id="Path_96" data-name="Path 96" d="M342.617,98.838H338.43l-3.951-5.29-.791.976v4.311H330.28V85.62h3.408v5.987l4.72-5.987h3.951l-5.165,6.117,5.423,7.1Z" transform="translate(-289.011 -85.378)" fill="#fff"/>
      <path id="Path_97" data-name="Path 97" d="M405.487,98.845H402.1V90l-2.451,5.744H397.3L394.844,90v8.85H391.63V85.63h3.96l2.972,6.629,2.966-6.629h3.96V98.845Z" transform="translate(-331.774 -85.385)" fill="#fff"/>
      <path id="Path_98" data-name="Path 98" d="M453.743,85.63l-4.872,8.1v5.114h-3.408V93.895L440.51,85.63h3.881l2.851,5.1L450,85.63h3.751Z" transform="translate(-365.845 -85.385)" fill="#fff"/>
      <path id="Path_99" data-name="Path 99" d="M516.437,94.791a3.7,3.7,0,0,1-.385,1.712,3.534,3.534,0,0,1-1.06,1.251,4.918,4.918,0,0,1-1.718.833,9.416,9.416,0,0,1-2.375.248H505.13V85.62h5.129a18.508,18.508,0,0,1,2.339.106,4.772,4.772,0,0,1,1.469.47,2.613,2.613,0,0,1,1.124,1.024,3.09,3.09,0,0,1-.136,3.16,3.3,3.3,0,0,1-1.43,1.139v.07a3.727,3.727,0,0,1,2.054,1.066,2.984,2.984,0,0,1,.757,2.13Zm-4.369-5.432a1.464,1.464,0,0,0-.164-.657,1.019,1.019,0,0,0-.582-.488,2.841,2.841,0,0,0-.927-.155c-.37-.009-.888-.012-1.557-.012h-.318v2.8h.533c.539,0,1-.009,1.375-.027a2.422,2.422,0,0,0,.9-.179,1.091,1.091,0,0,0,.6-.527,1.868,1.868,0,0,0,.142-.751Zm.827,5.381a1.671,1.671,0,0,0-.242-.973,1.485,1.485,0,0,0-.827-.509,4.4,4.4,0,0,0-1.1-.124c-.467-.006-.954-.009-1.46-.009h-.745v3.293h.248c.957,0,1.642,0,2.054-.009a3,3,0,0,0,1.142-.23,1.4,1.4,0,0,0,.73-.591A1.746,1.746,0,0,0,512.895,94.739Z" transform="translate(-410.888 -85.378)" fill="#fff"/>
      <path id="Path_100" data-name="Path 100" d="M559.271,94.061a4.721,4.721,0,0,1-1.491,3.754,8.037,8.037,0,0,1-8.783,0,4.717,4.717,0,0,1-1.488-3.745V85.63h3.427v8.247a3.1,3.1,0,0,0,.576,2.051,2.344,2.344,0,0,0,1.872.676,2.4,2.4,0,0,0,1.869-.648,3.031,3.031,0,0,0,.591-2.078V85.63h3.427v8.431Z" transform="translate(-440.428 -85.385)" fill="#fff"/>
      <path id="Path_101" data-name="Path 101" d="M603.077,94.127a3.766,3.766,0,0,1-1.654,3.172,7.413,7.413,0,0,1-4.5,1.221,12.655,12.655,0,0,1-2.863-.288,14.4,14.4,0,0,1-2.284-.733V94.33h.373a7.886,7.886,0,0,0,2.366,1.3,7.658,7.658,0,0,0,2.518.451,8.053,8.053,0,0,0,.818-.055,3.17,3.17,0,0,0,.824-.179,2,2,0,0,0,.642-.4.941.941,0,0,0,.251-.709.963.963,0,0,0-.37-.751,2.572,2.572,0,0,0-1.078-.485q-.745-.177-1.575-.333a12.3,12.3,0,0,1-1.557-.394,4.887,4.887,0,0,1-2.4-1.469,3.6,3.6,0,0,1-.733-2.3,3.548,3.548,0,0,1,1.654-3.014,7.218,7.218,0,0,1,4.257-1.166,13.353,13.353,0,0,1,2.578.251,12.145,12.145,0,0,1,2.206.633v3.045h-.364a7.023,7.023,0,0,0-1.957-1.069,6.722,6.722,0,0,0-2.366-.43,6.107,6.107,0,0,0-.848.058,3.385,3.385,0,0,0-.812.218,1.546,1.546,0,0,0-.594.4.883.883,0,0,0-.248.618.919.919,0,0,0,.4.8,4.468,4.468,0,0,0,1.509.509c.485.1.951.2,1.4.294a14.313,14.313,0,0,1,1.442.391,4.8,4.8,0,0,1,2.242,1.354,3.334,3.334,0,0,1,.724,2.224Z" transform="translate(-471.286 -84.82)" fill="#fff"/>
      <path id="Path_102" data-name="Path 102" d="M639.667,87.972V85.63H636.25v2.342h0V96.5h0v2.342h3.414V96.5h0V87.972Z" transform="translate(-502.284 -85.385)" fill="#fff"/>
      <path id="Path_103" data-name="Path 103" d="M668.148,98.845h-3.284l-5.611-9.071v9.071H656.13V85.63H660.2l4.82,7.571V85.63h3.124Z" transform="translate(-516.141 -85.385)" fill="#fff"/>
      <path id="Path_104" data-name="Path 104" d="M713.788,98.845H704.23V85.63h9.558v2.557H707.62v2.281h5.726v2.557H707.62v3.266h6.168v2.557Z" transform="translate(-549.668 -85.385)" fill="#fff"/>
      <path id="Path_105" data-name="Path 105" d="M751.447,94.127a3.766,3.766,0,0,1-1.654,3.172,7.413,7.413,0,0,1-4.5,1.221,12.655,12.655,0,0,1-2.863-.288,14.4,14.4,0,0,1-2.284-.733V94.33h.373a7.885,7.885,0,0,0,2.366,1.3,7.658,7.658,0,0,0,2.518.451,8.052,8.052,0,0,0,.818-.055,3.169,3.169,0,0,0,.824-.179,2,2,0,0,0,.642-.4.941.941,0,0,0,.251-.709.964.964,0,0,0-.37-.751,2.573,2.573,0,0,0-1.079-.485q-.745-.177-1.575-.333a12.3,12.3,0,0,1-1.557-.394,4.887,4.887,0,0,1-2.4-1.469,3.6,3.6,0,0,1-.733-2.3,3.548,3.548,0,0,1,1.654-3.014,7.218,7.218,0,0,1,4.257-1.166,13.353,13.353,0,0,1,2.578.251,12.147,12.147,0,0,1,2.206.633v3.045h-.364A7.022,7.022,0,0,0,748.6,87.68a6.722,6.722,0,0,0-2.366-.43,6.108,6.108,0,0,0-.848.058,3.384,3.384,0,0,0-.812.218,1.545,1.545,0,0,0-.594.4.883.883,0,0,0-.248.618.919.919,0,0,0,.4.8,4.468,4.468,0,0,0,1.509.509c.485.1.951.2,1.4.294a14.3,14.3,0,0,1,1.442.391,4.8,4.8,0,0,1,2.242,1.354,3.334,3.334,0,0,1,.724,2.224Z" transform="translate(-574.706 -84.82)" fill="#fff"/>
      <path id="Path_106" data-name="Path 106" d="M791.367,94.127a3.766,3.766,0,0,1-1.654,3.172,7.413,7.413,0,0,1-4.5,1.221,12.656,12.656,0,0,1-2.863-.288,14.4,14.4,0,0,1-2.284-.733V94.33h.373a7.884,7.884,0,0,0,2.366,1.3,7.658,7.658,0,0,0,2.518.451,8.053,8.053,0,0,0,.818-.055,3.169,3.169,0,0,0,.824-.179,2,2,0,0,0,.642-.4.941.941,0,0,0,.251-.709.963.963,0,0,0-.37-.751,2.572,2.572,0,0,0-1.079-.485q-.745-.177-1.575-.333a12.3,12.3,0,0,1-1.557-.394,4.887,4.887,0,0,1-2.4-1.469,3.6,3.6,0,0,1-.733-2.3,3.548,3.548,0,0,1,1.654-3.014,7.218,7.218,0,0,1,4.257-1.166,13.353,13.353,0,0,1,2.578.251,12.146,12.146,0,0,1,2.206.633v3.045h-.364a7.022,7.022,0,0,0-1.957-1.069,6.722,6.722,0,0,0-2.366-.43,6.107,6.107,0,0,0-.848.058,3.385,3.385,0,0,0-.812.218,1.546,1.546,0,0,0-.594.4.884.884,0,0,0-.248.618.919.919,0,0,0,.4.8,4.468,4.468,0,0,0,1.509.509c.485.1.951.2,1.4.294a14.3,14.3,0,0,1,1.442.391,4.8,4.8,0,0,1,2.242,1.354,3.334,3.334,0,0,1,.724,2.224Z" transform="translate(-602.532 -84.82)" fill="#fff"/>
    </g>
    <g id="Group_45" data-name="Group 45" transform="translate(51.63 54.32)">
      <circle id="Ellipse_11" data-name="Ellipse 11" cx="16.111" cy="16.111" r="16.111" fill="#fff"/>
      <g id="Group_44" data-name="Group 44" transform="translate(4.541 4.926)">
        <path id="Path_107" data-name="Path 107" d="M83.634,84.525,78.19,76.158l-5.444,8.368H66.62L76.148,70.58h4.084L89.76,84.525Z" transform="translate(-66.62 -70.58)" fill="#c4c4c4"/>
        <path id="Path_108" data-name="Path 108" d="M95.83,99.447V79.9h5.444V99.447Z" transform="translate(-86.98 -77.076)" fill="#c4c4c4"/>
      </g>
    </g>
  </g>
</svg>
