<svg xmlns="http://www.w3.org/2000/svg" width="75" height="60" viewBox="0 0 75 60">
  <g id="chart-down" transform="translate(-28 -13)">
    <path id="Path_176" data-name="Path 176" d="M29.985,13A1.875,1.875,0,0,0,28.1,14.875L28,71.125A1.875,1.875,0,0,0,29.875,73h71.25a1.875,1.875,0,0,0,0-3.75H31.75l.1-54.375A1.875,1.875,0,0,0,29.985,13Z" transform="translate(0 0)" fill="#282728"/>
    <path id="Path_177" data-name="Path 177" d="M31.283,15.1A1.875,1.875,0,0,0,30.1,17.469l7.5,22.5A1.875,1.875,0,0,0,40.7,40.7l9.719-9.719,9.954,13.271a1.875,1.875,0,0,0,2.314.564L76.883,38,86.6,51.71a1.876,1.876,0,1,0,3.062-2.168l-10.627-15a1.875,1.875,0,0,0-2.344-.608L62.455,40.768,52.127,27a1.875,1.875,0,0,0-2.827-.2l-9.1,9.1L33.656,16.283A1.875,1.875,0,0,0,31.283,15.1Z" transform="translate(5.499 5.499)" fill="#282728"/>
    <path id="Path_178" data-name="Path 178" d="M60.625,19a1.875,1.875,0,0,0-1.875,1.875V37.75H41.875a1.875,1.875,0,0,0,0,3.75h18.75A1.875,1.875,0,0,0,62.5,39.625V20.875A1.875,1.875,0,0,0,60.625,19Z" transform="translate(33 16.5)" fill="#282728"/>
  </g>
</svg>
