<svg xmlns="http://www.w3.org/2000/svg" width="60" height="60" viewBox="0 0 60 60">
  <g id="communication" transform="translate(-2 -2)">
    <path id="Path_160" data-name="Path 160" d="M3,62H17a1,1,0,0,0,1-1V52a5,5,0,0,0-4.1-4.909A4.947,4.947,0,0,0,15,44,5,5,0,1,0,5,44a4.947,4.947,0,0,0,1.1,3.091A5,5,0,0,0,2,52v9A1,1,0,0,0,3,62Zm7-21a3,3,0,1,1-3,3A3,3,0,0,1,10,41ZM4,52a3,3,0,0,1,3-3h6a3,3,0,0,1,3,3v8H4Zm53.9-4.909A4.947,4.947,0,0,0,59,44a5,5,0,1,0-10,0,4.947,4.947,0,0,0,1.1,3.091A5,5,0,0,0,46,52v9a1,1,0,0,0,1,1H61a1,1,0,0,0,1-1V52a5,5,0,0,0-4.1-4.909ZM54,41a3,3,0,1,1-3,3A3,3,0,0,1,54,41Zm6,19H48V52a3,3,0,0,1,3-3h6a3,3,0,0,1,3,3ZM35.151,17.3,33.6,17.068l-.7-1.492a1,1,0,0,0-1.81,0l-.7,1.492-1.546.236a1,1,0,0,0-.565,1.687l1.147,1.176-.273,1.673a1,1,0,0,0,1.471,1.037L32,22.118l1.371.757a1,1,0,0,0,1.47-1.037l-.273-1.673,1.147-1.176a1,1,0,0,0-.564-1.685Zm-2.367,1.827a1,1,0,0,0-.271.859l.023.138-.053-.028a1,1,0,0,0-.966,0l-.053.028.023-.138a1,1,0,0,0-.271-.859l-.141-.145.149-.023a1,1,0,0,0,.754-.563L32,18.354l.021.046a1,1,0,0,0,.754.563l.149.023Z" fill="#fff"/>
    <path id="Path_161" data-name="Path 161" d="M32,11a8,8,0,1,0,8,8A8.009,8.009,0,0,0,32,11Zm0,14a6,6,0,1,1,6-6A6.006,6.006,0,0,1,32,25Z" fill="#fff"/>
    <path id="Path_162" data-name="Path 162" d="M44,15.429H42.695a11.162,11.162,0,0,0-.606-1.467l.922-.922a1,1,0,0,0,0-1.414L39.374,7.989a1,1,0,0,0-1.414,0l-.922.922A11.336,11.336,0,0,0,35.571,8.3V7a1,1,0,0,0-1-1H29.428a1,1,0,0,0-1,1V8.3a11.254,11.254,0,0,0-1.467.607l-.921-.922a1,1,0,0,0-1.414,0l-3.637,3.637a1,1,0,0,0,0,1.414l.922.922a11.243,11.243,0,0,0-.606,1.467H20a1,1,0,0,0-1,1v5.143a1,1,0,0,0,1,1h1.305a11.162,11.162,0,0,0,.606,1.467l-.922.922a1,1,0,0,0,0,1.414l3.637,3.637a1,1,0,0,0,1.414,0l.922-.922a11.336,11.336,0,0,0,1.467.607V31a1,1,0,0,0,1,1h5.143a1,1,0,0,0,1-1V29.7a11.253,11.253,0,0,0,1.467-.607l.922.922a1,1,0,0,0,1.414,0l3.637-3.637a1,1,0,0,0,0-1.414l-.922-.922a11.243,11.243,0,0,0,.606-1.467H44a1,1,0,0,0,1-1V16.428A1,1,0,0,0,44,15.429Zm-1,5.142h-.411a1.867,1.867,0,0,0-1.771,1.307,9.264,9.264,0,0,1-.547,1.323,1.868,1.868,0,0,0,.328,2.176l.29.29L38.666,27.89l-.289-.29a1.868,1.868,0,0,0-2.177-.33,9.272,9.272,0,0,1-1.323.548,1.867,1.867,0,0,0-1.307,1.771V30H30.427v-.411a1.865,1.865,0,0,0-1.306-1.77,9.3,9.3,0,0,1-1.325-.548,1.865,1.865,0,0,0-2.175.329l-.29.29-2.223-2.223.29-.29a1.867,1.867,0,0,0,.329-2.174,9.34,9.34,0,0,1-.548-1.325,1.867,1.867,0,0,0-1.771-1.306H21V17.429h.411a1.867,1.867,0,0,0,1.771-1.307,9.263,9.263,0,0,1,.547-1.323,1.868,1.868,0,0,0-.328-2.176l-.29-.29,2.223-2.223.29.29a1.865,1.865,0,0,0,2.176.329,9.272,9.272,0,0,1,1.323-.548A1.867,1.867,0,0,0,30.43,8.41V8h3.143v.411a1.865,1.865,0,0,0,1.306,1.77,9.3,9.3,0,0,1,1.325.548,1.865,1.865,0,0,0,2.175-.329l.29-.29,2.223,2.223-.29.29a1.867,1.867,0,0,0-.329,2.174,9.34,9.34,0,0,1,.548,1.325,1.867,1.867,0,0,0,1.771,1.306H43Z" fill="#fff"/>
    <path id="Path_163" data-name="Path 163" d="M57,33V5a3,3,0,0,0-3-3H10A3,3,0,0,0,7,5V33a3,3,0,0,0,3,3h5.78l-.761,3.8a1,1,0,0,0,1.562,1.01L23.32,36H40.68l6.739,4.814a1,1,0,0,0,1.562-1.01L48.22,36H54A3,3,0,0,0,57,33ZM47,34a1,1,0,0,0-.98,1.2l.5,2.52-4.942-3.53A1,1,0,0,0,41,34H23a1,1,0,0,0-.581.186l-4.942,3.53.5-2.52A1,1,0,0,0,17,34H10a1,1,0,0,1-1-1V5a1,1,0,0,1,1-1H54a1,1,0,0,1,1,1V33a1,1,0,0,1-1,1Z" fill="#fff"/>
  </g>
</svg>
