<svg xmlns="http://www.w3.org/2000/svg" width="65.922" height="60.006" viewBox="0 0 65.922 60.006">
  <g id="group" transform="translate(-2.25 -3)">
    <path id="Path_164" data-name="Path 164" d="M20.835,18.361A2.875,2.875,0,0,0,22.028,19.4a10.987,10.987,0,0,1,6.237,9.912v6.761a2.535,2.535,0,0,0,5.071,0V29.308A16.058,16.058,0,0,0,17.279,13.25a.407.407,0,0,0-.257.713,20.385,20.385,0,0,1,3.813,4.4Z" transform="translate(34.835 24.401)" fill="#282728"/>
    <path id="Path_165" data-name="Path 165" d="M18.308,18.321A10.987,10.987,0,0,0,7.321,29.308v6.761a2.535,2.535,0,0,1-5.071,0V29.308A16.058,16.058,0,0,1,18.308,13.25H38.592A16.058,16.058,0,0,1,54.649,29.308v6.761a2.535,2.535,0,0,1-5.071,0V29.308A10.987,10.987,0,0,0,38.592,18.321Z" transform="translate(0 24.401)" fill="#282728" fill-rule="evenodd"/>
    <path id="Path_166" data-name="Path 166" d="M17.156,25.167A3.455,3.455,0,0,1,18.5,23.814a8.448,8.448,0,0,0,0-14.584,3.482,3.482,0,0,1-1.339-1.352A18.641,18.641,0,0,0,14,3.541.315.315,0,0,1,14.215,3a13.522,13.522,0,1,1,0,27.045A.315.315,0,0,1,14,29.5,18.448,18.448,0,0,0,17.156,25.167Z" transform="translate(27.757)" fill="#282728"/>
    <path id="Path_167" data-name="Path 167" d="M19.522,24.974a8.452,8.452,0,1,0-8.452-8.452A8.452,8.452,0,0,0,19.522,24.974Zm0,5.071A13.522,13.522,0,1,0,6,16.522,13.522,13.522,0,0,0,19.522,30.045Z" transform="translate(8.927)" fill="#282728" fill-rule="evenodd"/>
  </g>
</svg>
