<svg xmlns="http://www.w3.org/2000/svg" width="60" height="60" viewBox="0 0 60 60">
  <g id="effective-communication" transform="translate(-2 -2)">
    <path id="Path_179" data-name="Path 179" d="M57,51H55.889a7,7,0,1,0-9.778,0H45a5.006,5.006,0,0,0-5,5v1H37a3,3,0,0,1-3-3V52.941a9,9,0,0,0-.1-17.9A5.006,5.006,0,0,0,29,31H23V28.414l1.293,1.293,1.414-1.414-3-3a1,1,0,0,0-1.414,0l-3,3,1.414,1.414L21,28.414V31H15a5.006,5.006,0,0,0-4.9,4.046,9,9,0,0,0-.1,17.9V54a5.006,5.006,0,0,0,5,5H40v2a1,1,0,0,0,1,1H61a1,1,0,0,0,1-1V56A5.006,5.006,0,0,0,57,51ZM40,44a7,7,0,1,1-7-7A7.008,7.008,0,0,1,40,44ZM4,44a7,7,0,1,1,7,7A7.008,7.008,0,0,1,4,44Zm8,10V52.941a8.994,8.994,0,0,0,.158-17.858A2.994,2.994,0,0,1,15,33H29a2.994,2.994,0,0,1,2.842,2.083A8.994,8.994,0,0,0,32,52.941V54a4.948,4.948,0,0,0,1.026,3H15A3,3,0,0,1,12,54Zm34-8a5,5,0,1,1,5,5A5.006,5.006,0,0,1,46,46ZM60,60H42V56a3,3,0,0,1,3-3H57a3,3,0,0,1,3,3ZM33,24V19a5.006,5.006,0,0,0-5-5H26.889a6.987,6.987,0,0,0,2.031-4h9.666l-1.293,1.293,1.414,1.414,3-3a1,1,0,0,0,0-1.414l-3-3L37.293,6.707,38.586,8H28.92a7,7,0,1,0-11.809,6H16a5.006,5.006,0,0,0-5,5v5a1,1,0,0,0,1,1H32A1,1,0,0,0,33,24ZM17,9a5,5,0,1,1,5,5A5.006,5.006,0,0,1,17,9ZM31,23H13V19a3,3,0,0,1,3-3H28a3,3,0,0,1,3,3Z"/>
    <rect id="Rectangle_96" data-name="Rectangle 96" width="2" height="2" transform="translate(7 41)"/>
    <rect id="Rectangle_97" data-name="Rectangle 97" width="2" height="2" transform="translate(13 41)"/>
    <path id="Path_180" data-name="Path 180" d="M14,46H12a1,1,0,0,1-2,0H8a3,3,0,0,0,6,0Z"/>
    <rect id="Rectangle_98" data-name="Rectangle 98" width="2" height="2" transform="translate(29 41)"/>
    <rect id="Rectangle_99" data-name="Rectangle 99" width="2" height="2" transform="translate(35 41)"/>
    <path id="Path_181" data-name="Path 181" d="M33,45a3,3,0,0,0-3,3h2a1,1,0,0,1,2,0h2A3,3,0,0,0,33,45Z"/>
    <rect id="Rectangle_100" data-name="Rectangle 100" width="10" height="2" transform="translate(46 6)"/>
    <rect id="Rectangle_101" data-name="Rectangle 101" width="10" height="2" transform="translate(46 10)"/>
    <rect id="Rectangle_102" data-name="Rectangle 102" width="10" height="2" transform="translate(46 14)"/>
    <path id="Path_182" data-name="Path 182" d="M43,20h7V35.586l-1.293-1.293-1.414,1.414,3,3a1,1,0,0,0,1.414,0l3-3-1.414-1.414L52,35.586V20h7a1,1,0,0,0,1-1V3a1,1,0,0,0-1-1H43a1,1,0,0,0-1,1V19A1,1,0,0,0,43,20ZM44,4H58V18H44Z"/>
  </g>
</svg>
