<svg xmlns="http://www.w3.org/2000/svg" width="60" height="60" viewBox="0 0 60 60">
  <path id="employee-transfer" d="M5.571,7.957c0,3.9,3.11,8.607,6.974,8.607s6.975-4.708,6.975-8.607a6.975,6.975,0,0,0-13.949,0Zm11.449,0c0,2.667-2.17,6.107-4.475,6.107s-4.474-3.44-4.474-6.107a4.475,4.475,0,0,1,8.949,0ZM2.25,32.913h8.1A20.692,20.692,0,0,0,30.5,51.76l-2.706,2.7a1.25,1.25,0,1,0,1.765,1.77l4.813-4.8a1.25,1.25,0,0,0,0-1.77l-4.813-4.8a1.25,1.25,0,0,0-1.765,1.77l2.634,2.626A18.207,18.207,0,0,1,12.854,32.913h9.658a1.25,1.25,0,0,0,1.25-1.25V27.494A9.7,9.7,0,0,0,14.088,18H10.679A9.639,9.639,0,0,0,1,27.349v4.314A1.25,1.25,0,0,0,2.25,32.913ZM10.679,20.5h3.409a7.189,7.189,0,0,1,7.173,7.02v2.9H3.5v-3.02A7.14,7.14,0,0,1,10.679,20.5ZM61,55.6v-.019a9.7,9.7,0,0,0-9.672-9.5H47.919a9.639,9.639,0,0,0-9.679,9.352V59.75A1.25,1.25,0,0,0,39.49,61H59.75A1.25,1.25,0,0,0,61,59.75V55.6Zm-2.5,2.9H40.74V55.48a7.141,7.141,0,0,1,7.18-6.9h3.409A7.187,7.187,0,0,1,58.5,55.6ZM49.305,29.111a6.969,6.969,0,0,0-6.495,6.933c0,3.9,3.112,8.607,6.975,8.607s6.975-4.708,6.975-8.607a6.971,6.971,0,0,0-4.927-6.65A20.664,20.664,0,0,0,31.667,10.254l2.7-2.7a1.25,1.25,0,1,0-1.765-1.77l-4.813,4.8a1.25,1.25,0,0,0,0,1.77l4.813,4.8a1.25,1.25,0,1,0,1.765-1.77l-2.637-2.628A18.178,18.178,0,0,1,49.305,29.111Zm4.955,6.933c0,2.667-2.17,6.107-4.475,6.107s-4.475-3.44-4.475-6.107a4.475,4.475,0,0,1,8.95,0Z" transform="translate(-1 -1)" fill="#282728"/>
</svg>
