<svg width="521" height="522" viewBox="0 0 521 522" fill="none" xmlns="http://www.w3.org/2000/svg">
<g clip-path="url(#clip0_4029_44)">
<path d="M30.2 0.851562H491.15C506.775 0.851562 520.85 14.9266 520.85 30.5516V491.502C520.85 507.127 506.775 521.202 491.15 521.202H30.2C14.575 521.202 0.5 507.127 0.5 491.502V30.5516C0.5 14.9266 14.575 0.851562 30.2 0.851562ZM370.025 293.027H441.9L445.025 224.277H370.025V173.502C370.025 153.977 373.925 143.027 398.925 143.027H442.675L444.25 78.9516C444.25 78.9516 424.725 75.8266 396.6 75.8266C327.85 75.8266 297.375 118.802 297.375 164.902V224.277H246.6V293.027H297.375V483.652H370.025V293.027Z" fill="#282728"/>
</g>
<defs>
<clipPath id="clip0_4029_44">
<rect width="521" height="522" fill="white"/>
</clipPath>
</defs>
</svg>
