<svg xmlns="http://www.w3.org/2000/svg" width="60.031" height="60" viewBox="0 0 60.031 60">
  <path id="goal" d="M61.926,12.208a2.14,2.14,0,0,0-1.408-1.539l-5.4-1.8-1.8-5.4a2.14,2.14,0,0,0-3.542-.837L42.891,9.5A27.874,27.874,0,1,0,54.469,21.1l6.885-6.885A2.14,2.14,0,0,0,61.926,12.208ZM29.878,57.645A23.543,23.543,0,1,1,40.661,13.223c.013.051.013.1.03.154L42.4,18.543l-3.57,3.574a15.042,15.042,0,1,0,3.031,3.031l3.578-3.578,5.167,1.712c.045.015.094.011.141.024a23.451,23.451,0,0,1-20.872,34.34ZM40.579,34.1a10.733,10.733,0,1,1-4.809-8.918l-4.8,4.8a4.2,4.2,0,0,0-1.094-.161,4.28,4.28,0,1,0,4.28,4.28A4.2,4.2,0,0,0,34,33.009l4.8-4.8A10.635,10.635,0,0,1,40.579,34.1ZM50.7,18.813l-4.148-1.385-1.383-4.15L50.343,8.1l1.049,3.135a2.14,2.14,0,0,0,1.353,1.355l3.133,1.044Z" transform="translate(-1.952 -2.001)" fill="#282728"/>
</svg>
