<svg xmlns="http://www.w3.org/2000/svg" xmlns:xlink="http://www.w3.org/1999/xlink" width="130" height="58" viewBox="0 0 130 58">
  <defs>
    <clipPath id="clip-path">
      <rect id="Rectangle_178" data-name="Rectangle 178" width="130" height="58" transform="translate(0.001 -0.324)" fill="none"/>
    </clipPath>
  </defs>
  <g id="Group_20998" data-name="Group 20998" transform="translate(-0.001 0.324)" clip-path="url(#clip-path)">
    <path id="Path_307" data-name="Path 307" d="M21.045,31.366v9.326H18.062V17.667h7.912A7.185,7.185,0,0,1,31.1,19.66a6.617,6.617,0,0,1,0,9.744,7.174,7.174,0,0,1-5.125,1.962Zm0-10.87v8.04H26.04a3.961,3.961,0,0,0,2.951-1.191,3.9,3.9,0,0,0,0-5.627A3.909,3.909,0,0,0,26.04,20.5Z" transform="translate(9.526 9.095)" fill="#636364"/>
    <path id="Path_308" data-name="Path 308" d="M35.617,22.126a7.439,7.439,0,0,1,5.222,1.753,6.194,6.194,0,0,1,1.912,4.808V38.4H39.9V36.212h-.13a5.7,5.7,0,0,1-4.929,2.7,6.434,6.434,0,0,1-4.394-1.544,4.907,4.907,0,0,1-1.767-3.858,4.668,4.668,0,0,1,1.865-3.891,7.9,7.9,0,0,1,4.978-1.448,8.88,8.88,0,0,1,4.378.965v-.676a3.355,3.355,0,0,0-1.233-2.621,4.248,4.248,0,0,0-2.885-1.077,4.584,4.584,0,0,0-3.958,2.09L29.2,25.213a7.342,7.342,0,0,1,6.42-3.087M31.759,33.575a2.356,2.356,0,0,0,.99,1.93,3.653,3.653,0,0,0,2.319.773,4.78,4.78,0,0,0,3.356-1.383A4.318,4.318,0,0,0,39.9,31.645a6.169,6.169,0,0,0-3.892-1.094,5.086,5.086,0,0,0-3.032.868,2.576,2.576,0,0,0-1.216,2.156" transform="translate(15.126 11.39)" fill="#636364"/>
    <path id="Path_309" data-name="Path 309" d="M40.1,24.1h2.855v2.572h.128q1.331-3.022,5.482-3.023l.616.065v3.087l-1.33-.129a4.788,4.788,0,0,0-3.421,1.271,4.252,4.252,0,0,0-1.346,3.232v8.683H40.1ZM58.715,40.12a4.557,4.557,0,0,1-3.226-1.189,4.392,4.392,0,0,1-1.314-3.313V26.805H51.386V24.1h2.789V19.28h2.983V24.1H61.05v2.7H57.158v7.848a2.865,2.865,0,0,0,.616,2.139,2.019,2.019,0,0,0,1.395.562,3.064,3.064,0,0,0,.7-.08,3.592,3.592,0,0,0,.632-.209L61.44,39.7a8.084,8.084,0,0,1-2.725.418" transform="translate(21.15 9.925)" fill="#636364"/>
    <path id="Path_310" data-name="Path 310" d="M55.79,22.64h2.853v2.187h.13a5.294,5.294,0,0,1,2.093-1.93,6.03,6.03,0,0,1,2.934-.773,5.9,5.9,0,0,1,4.492,1.657,6.58,6.58,0,0,1,1.573,4.711V38.4H66.881V28.685q-.1-3.858-3.924-3.858a3.739,3.739,0,0,0-2.983,1.431,5.155,5.155,0,0,0-1.2,3.425V38.4H55.79Z" transform="translate(29.425 11.39)" fill="#636364"/>
    <path id="Path_311" data-name="Path 311" d="M74.745,38.913a7.626,7.626,0,0,1-5.772-2.38A8.368,8.368,0,0,1,66.7,30.52a8.531,8.531,0,0,1,2.2-6,7.975,7.975,0,0,1,11.269-.129,9.013,9.013,0,0,1,2.094,6.351l-.034.323H69.752A5.108,5.108,0,0,0,71.308,34.8a5.048,5.048,0,0,0,8.042-1.415l2.661,1.288a7.909,7.909,0,0,1-2.968,3.119,8.271,8.271,0,0,1-4.3,1.125M69.979,28.622H79.09A3.9,3.9,0,0,0,77.746,25.9a4.743,4.743,0,0,0-3.26-1.077,4.35,4.35,0,0,0-2.9,1.029,4.915,4.915,0,0,0-1.6,2.766" transform="translate(35.181 11.39)" fill="#636364"/>
    <path id="Path_312" data-name="Path 312" d="M81.661,38.377H78.678V22.619h2.853v2.572h.13a4.283,4.283,0,0,1,1.865-2.139,5.21,5.21,0,0,1,2.772-.885,5.629,5.629,0,0,1,2.206.386L87.6,25.417a4.976,4.976,0,0,0-1.75-.226,3.87,3.87,0,0,0-2.934,1.351,4.489,4.489,0,0,0-1.249,3.151Z" transform="translate(41.497 11.412)" fill="#636364"/>
    <path id="Path_313" data-name="Path 313" d="M25.086,11.057v2.009h4.847a4.238,4.238,0,0,1-1.592,2.96,5.093,5.093,0,0,1-3.255,1.041,5.1,5.1,0,0,1-3.78-1.562,5.149,5.149,0,0,1-1.537-3.784,5.152,5.152,0,0,1,1.537-3.784,5.1,5.1,0,0,1,3.78-1.562A5.211,5.211,0,0,1,28.74,7.811l1.428-1.418a7.165,7.165,0,0,0-5.082-2.027,7.518,7.518,0,0,0-3.762,1,7.3,7.3,0,0,0-2.766,2.708,7.189,7.189,0,0,0,0,7.3,7.18,7.18,0,0,0,2.766,2.69,7.518,7.518,0,0,0,3.762,1,6.949,6.949,0,0,0,4.973-1.866,6.42,6.42,0,0,0,1.954-4.9,6.459,6.459,0,0,0-.108-1.256Z" transform="translate(9.263 2.248)" fill="#276ab3"/>
    <path id="Path_314" data-name="Path 314" d="M32.29,7.824a4.661,4.661,0,0,0-3.418,1.363A4.523,4.523,0,0,0,27.5,12.559a4.568,4.568,0,0,0,1.393,3.372,4.922,4.922,0,0,0,6.8,0,4.567,4.567,0,0,0,1.391-3.372A4.491,4.491,0,0,0,35.69,9.187a4.638,4.638,0,0,0-3.4-1.363m1.9,6.78a2.619,2.619,0,0,1-3.817,0,2.869,2.869,0,0,1-.777-2.045,2.8,2.8,0,0,1,.777-2.045,2.643,2.643,0,0,1,3.835,0,2.8,2.8,0,0,1,.777,2.045,2.872,2.872,0,0,1-.8,2.045" transform="translate(14.503 4.028)" fill="#e71c1f"/>
    <rect id="Rectangle_176" data-name="Rectangle 176" width="2.099" height="13.918" transform="translate(73.504 7.118)" fill="#009e3a"/>
    <path id="Path_315" data-name="Path 315" d="M39.134,7.824a4.661,4.661,0,0,0-3.418,1.363,4.523,4.523,0,0,0-1.375,3.372,4.568,4.568,0,0,0,1.393,3.372,4.922,4.922,0,0,0,6.8,0,4.568,4.568,0,0,0,1.393-3.372,4.493,4.493,0,0,0-1.393-3.372,4.638,4.638,0,0,0-3.4-1.363m1.9,6.78a2.617,2.617,0,0,1-3.816,0,2.862,2.862,0,0,1-.777-2.045,2.789,2.789,0,0,1,.777-2.045,2.642,2.642,0,0,1,3.834,0,2.8,2.8,0,0,1,.777,2.045,2.872,2.872,0,0,1-.8,2.045" transform="translate(18.112 4.028)" fill="orange"/>
    <path id="Path_316" data-name="Path 316" d="M54.9,15.43a2.445,2.445,0,0,1-2.316-1.436l6.385-2.618-.217-.539a5.282,5.282,0,0,0-.66-1.219,4.73,4.73,0,0,0-.932-.959A3.979,3.979,0,0,0,56,8.039a4.154,4.154,0,0,0-1.338-.215,4.3,4.3,0,0,0-3.22,1.345,4.756,4.756,0,0,0-1.283,3.39A4.767,4.767,0,0,0,58.877,15.2l-1.628-1.077A2.716,2.716,0,0,1,54.9,15.43m-1.935-4.987a2.465,2.465,0,0,1,1.772-.789,2.182,2.182,0,0,1,1.1.279,1.468,1.468,0,0,1,.669.726l-4.269,1.757a2.583,2.583,0,0,1,.724-1.972" transform="translate(26.456 4.028)" fill="#e71c1f"/>
    <path id="Path_317" data-name="Path 317" d="M48.347,8.883h-.073a3.125,3.125,0,0,0-2.513-1.059,4.37,4.37,0,0,0-3.22,1.4,4.649,4.649,0,0,0-1.356,3.354,4.628,4.628,0,0,0,1.356,3.337,4.442,4.442,0,0,0,3.22,1.38,3.1,3.1,0,0,0,2.513-1.075h.073V16.7q0,2.977-2.551,2.977a2.377,2.377,0,0,1-1.446-.467,2.92,2.92,0,0,1-.959-1.219l-1.827.753a4.867,4.867,0,0,0,.687,1.139,4.374,4.374,0,0,0,.968.88,4.738,4.738,0,0,0,1.2.573,4.527,4.527,0,0,0,1.375.208,4.355,4.355,0,0,0,3.337-1.283,5.135,5.135,0,0,0,1.2-3.651v-8.5H48.347Zm-.6,5.739a2.365,2.365,0,0,1-1.808.807,2.508,2.508,0,0,1-1.9-.826,2.879,2.879,0,0,1-.761-2.027,2.869,2.869,0,0,1,.779-2.045,2.5,2.5,0,0,1,1.88-.842,2.31,2.31,0,0,1,1.808.824,3.015,3.015,0,0,1,.741,2.063,2.985,2.985,0,0,1-.741,2.045" transform="translate(21.722 4.028)" fill="#276ab3"/>
    <rect id="Rectangle_177" data-name="Rectangle 177" width="15.219" height="57.353" transform="translate(0 0)" fill="#276ab3"/>
  </g>
</svg>
