<svg xmlns="http://www.w3.org/2000/svg" width="82.161" height="60" viewBox="0 0 82.161 60">
  <path id="handshake" d="M76.681,78.418a12.836,12.836,0,0,0-13.017-2.986L48.943,80.075,34.222,75.432a12.835,12.835,0,0,0-13.017,2.986l-9.727,9.727c-5.037,5.037-4.779,13.5.575,18.864,5.878,5.889,12.218,12.24,17.5,17.524a5.483,5.483,0,0,0,1.392,5.254l.071.071a5.406,5.406,0,0,0,3.843,1.57,5.8,5.8,0,0,0,1.422-.179l.563.56a6.043,6.043,0,0,0,3.046,1.645,5.376,5.376,0,0,0,3.593,1.339q.1,0,.2,0a6,6,0,0,0,4.037-1.779l1.218-1.22,1.22,1.22A6,6,0,0,0,54.2,134.79c.068,0,.135,0,.2,0a5.381,5.381,0,0,0,3.585-1.334,6.108,6.108,0,0,0,3.053-1.65l.566-.563a5.5,5.5,0,0,0,5.262-1.389l.07-.07a5.5,5.5,0,0,0,1.391-5.252c5.237-5.235,11.5-11.505,17.505-17.526,5.354-5.364,5.612-13.827.574-18.864ZM32.893,127.985l-.071-.071a2.652,2.652,0,0,1-.4-.522l1,1a2.642,2.642,0,0,1-.524-.406Zm12.957,3.154a3.555,3.555,0,0,1-.544.444,5.31,5.31,0,0,0,1.12-2.307l.644.644Zm19.213-3.224-.07.07a3.077,3.077,0,0,1-4.331-.213l-20.34-20.341A1.324,1.324,0,1,0,38.45,109.3l17.7,17.7.009.009a3.355,3.355,0,0,1,1,2.255,2.727,2.727,0,0,1-2.874,2.874,3.355,3.355,0,0,1-2.255-1l-2.156-2.156h0L34.325,113.429a1.324,1.324,0,1,0-1.873,1.873l10.433,10.433.007.007a3.355,3.355,0,0,1,1,2.255,2.76,2.76,0,0,1-.791,2.076l-.066.066a3.077,3.077,0,0,1-4.324-.207l-1.147-1.142-.007-.007c-1.561-1.555-3.37-3.362-5.344-5.335A1.316,1.316,0,0,0,31.77,123c-5.352-5.35-11.837-11.846-17.842-17.863-4.323-4.331-4.582-11.114-.576-15.12l9.727-9.726a10.2,10.2,0,0,1,10.347-2.332l11.114,3.5-6.208,1.958a1.324,1.324,0,0,0-.92,1.386l.151,1.626a7.394,7.394,0,0,0,2.532,5.3,7.512,7.512,0,0,0,5.725,1.783l.882-.087,1.306,1.308h0l18.184,18.209a3.077,3.077,0,0,1,.211,4.329l-.007.007a3.064,3.064,0,0,1-4.23-.129L55.714,110.7c-4.791-4.79-8.93-8.926-9.33-9.329a1.324,1.324,0,1,0-1.88,1.866c.4.406,4.543,4.544,9.337,9.336l6.3,6.3q.026.029.054.058c.041.041.083.081.124.121l4.53,4.529a3.077,3.077,0,0,1,.211,4.331Zm18.894-22.777c-5.782,5.793-11.8,11.818-16.908,16.928-.1-.121-.211-.24-.326-.354l-1.12-1.121a5.319,5.319,0,0,0,2.67-1.443l.01-.01a5.725,5.725,0,0,0-.22-8.065L50.814,93.8,52.006,92.6A1.324,1.324,0,0,0,50.94,90.35l-5.381.528a4.888,4.888,0,0,1-3.729-1.146,4.773,4.773,0,0,1-1.625-3.446c0-.022,0-.045,0-.067l-.055-.593,9.17-2.892h0L64.46,77.959a10.2,10.2,0,0,1,10.347,2.332l9.727,9.727C88.54,94.023,88.282,100.806,83.958,105.137Z" transform="translate(-7.863 -74.794)" fill="#fff"/>
</svg>
