<svg xmlns="http://www.w3.org/2000/svg" width="55.198" height="60.013" viewBox="0 0 55.198 60.013">
  <g id="innovation-icon" transform="translate(0.001 0.001)">
    <path id="Path_183" data-name="Path 183" d="M21.551,49.848a1.109,1.109,0,0,1-.234-2.2c-.635-3.6-2.369-5.582-4.2-7.677a23.829,23.829,0,0,1-4.073-5.821,17.582,17.582,0,0,1-1.758-7.633,17.925,17.925,0,0,1,2.149-8.161c.01-.02.02-.034.029-.054h0a15.491,15.491,0,0,1,7.555-6.6,16.732,16.732,0,0,1,7.863-1.123,18.111,18.111,0,0,1,7.506,2.413,15.492,15.492,0,0,1,6.554,7.428,16.455,16.455,0,0,1,1.24,5.773,16.694,16.694,0,0,1-1.275,6.779,24.019,24.019,0,0,1-4.625,7.086,15.8,15.8,0,0,0-3.624,5.782,1.109,1.109,0,0,1-.1,2.178l-.371.054q-.1.8-.132,1.714l.122-.02a1.109,1.109,0,1,1,.3,2.2l-.381.054.015.22h0a8.822,8.822,0,0,1,.015,1.24l.063-.01a1.112,1.112,0,1,1,.273,2.207l-.82.1a6.647,6.647,0,0,1-2.867,3.389,6.238,6.238,0,0,1-2.74.835,5.682,5.682,0,0,1-2.823-.552,5.954,5.954,0,0,1-2.584-2.51,1.116,1.116,0,0,1-.6-.855,1.074,1.074,0,0,1,.034-.435,10.127,10.127,0,0,1-.425-1.87l-.034,0a1.109,1.109,0,1,1-.3-2.2l.264-.039q.022-.894-.015-1.7ZM1.064,28.745A1.033,1.033,0,1,1,1,26.68l4.249-.147A1.033,1.033,0,0,1,5.313,28.6l-4.249.147Zm52.994-4.2a1.033,1.033,0,1,1,.21,2.056l-4.229.444a1.033,1.033,0,1,1-.21-2.056l4.229-.444Zm-7.7-17.323A1.031,1.031,0,0,1,48.07,8.366L45.706,11.9a1.031,1.031,0,1,1-1.714-1.148l2.364-3.536ZM28.144,1.006a1.031,1.031,0,0,1,2.061.049L30.1,5.3a1.031,1.031,0,1,1-2.061-.049l.107-4.249ZM6.778,7.584A1.033,1.033,0,1,1,8.185,6.07l3.111,2.9a1.033,1.033,0,0,1-1.407,1.514l-3.111-2.9Zm16.6,39.768,9.03-1.284c.777-3.272,2.466-5.24,4.3-7.365a22.293,22.293,0,0,0,4.278-6.515,14.7,14.7,0,0,0,1.128-5.953,14.3,14.3,0,0,0-1.094-5.05,13.425,13.425,0,0,0-5.69-6.422A15.9,15.9,0,0,0,28.7,12.629a14.713,14.713,0,0,0-6.9.987,13.443,13.443,0,0,0-6.539,5.724,15.873,15.873,0,0,0-1.9,7.194,15.489,15.489,0,0,0,1.563,6.74,22.214,22.214,0,0,0,3.756,5.333c2.071,2.374,4.029,4.615,4.713,8.747Zm8.664,1.011-8.434,1.2c.024.537.034,1.1.024,1.695l8.327-1.182c.01-.6.034-1.172.083-1.709Zm-8.366,5.128a8.046,8.046,0,0,0,.259,1.24l8.083-1a6.381,6.381,0,0,0,.024-1.338h0v-.01l0-.083-8.361,1.187Zm1.407,3.34a3.55,3.55,0,0,0,1.026.757,3.63,3.63,0,0,0,1.792.352,4.149,4.149,0,0,0,1.827-.562,4.478,4.478,0,0,0,1.407-1.294l-6.051.747Z" transform="translate(0 0)" fill="#282728" fill-rule="evenodd"/>
    <path id="Path_184" data-name="Path 184" d="M27.143,16.674h1.978a1.95,1.95,0,0,1,1.947,1.947v.885q.326.131.64.289L32.2,19.3a1.933,1.933,0,0,1,2.752-.007l1.4,1.4a1.952,1.952,0,0,1,0,2.752l-.628.628q.137.321.247.654h.7a1.95,1.95,0,0,1,1.947,1.947v1.978A1.95,1.95,0,0,1,36.672,30.6h-.885q-.131.326-.289.64l.495.495a1.948,1.948,0,0,1,0,2.752l-1.4,1.4a1.952,1.952,0,0,1-2.752,0l-.623-.623q-.323.138-.659.249v.7a1.95,1.95,0,0,1-1.947,1.947H26.635a1.95,1.95,0,0,1-1.947-1.947v-.885q-.325-.131-.639-.289l-.485.487a1.952,1.952,0,0,1-2.754,0l-1.4-1.4a1.948,1.948,0,0,1,0-2.752l.623-.623q-.137-.321-.247-.654h-.7a1.95,1.95,0,0,1-1.947-1.947V26.177a1.95,1.95,0,0,1,1.947-1.947h.885q.131-.326.289-.64l-.495-.495a1.952,1.952,0,0,1,0-2.752l1.4-1.4a1.952,1.952,0,0,1,2.752,0l.628.628q.321-.137.654-.247v-.7A1.95,1.95,0,0,1,27.143,16.674Zm1.925,2H27.2v2.2l-.775.179a6.493,6.493,0,0,0-1.612.6l-.655.352L22.538,20.4l-1.321,1.321,1.555,1.555-.422.675a6.533,6.533,0,0,0-.716,1.571l-.215.71H19.138V28.1h2.2l.179.775a6.493,6.493,0,0,0,.6,1.612l.352.655-1.611,1.611,1.321,1.321,1.544-1.551.676.424a6.533,6.533,0,0,0,1.571.716l.71.215V36.16h1.873v-2.2l.776-.178a6.464,6.464,0,0,0,1.616-.6l.655-.352,1.611,1.611,1.321-1.321-1.555-1.555.422-.675a6.533,6.533,0,0,0,.716-1.571l.215-.71h2.281V26.727h-2.2l-.179-.775a6.493,6.493,0,0,0-.6-1.612l-.352-.655L34.9,22.069,33.58,20.754l-1.555,1.555-.675-.422a6.534,6.534,0,0,0-1.571-.716l-.71-.215Zm-1.188,3.851a4.887,4.887,0,1,1-4.887,4.887A4.893,4.893,0,0,1,27.881,22.525Zm0,7.775a2.887,2.887,0,1,0-2.887-2.887A2.891,2.891,0,0,0,27.881,30.3Z" transform="translate(0 0)" fill="#282728"/>
  </g>
</svg>
