<svg width="668" height="668" viewBox="0 0 668 668" fill="none" xmlns="http://www.w3.org/2000/svg">
<g clip-path="url(#clip0_4027_40)">
<path d="M34 300.667C34 174.959 34 112.105 73.0523 73.0523C112.105 34 174.959 34 300.667 34H367.333C493.04 34 555.897 34 594.947 73.0523C634 112.105 634 174.959 634 300.667V367.333C634 493.04 634 555.897 594.947 594.947C555.897 634 493.04 634 367.333 634H300.667C174.959 634 112.105 634 73.0523 594.947C34 555.897 34 493.04 34 367.333V300.667Z" stroke="#282728" stroke-width="66.6667"/>
<path d="M484 234C511.614 234 534 211.614 534 184C534 156.386 511.614 134 484 134C456.386 134 434 156.386 434 184C434 211.614 456.386 234 484 234Z" fill="#282728"/>
<path d="M334 434C389.228 434 434 389.228 434 334C434 278.772 389.228 234 334 234C278.772 234 234 278.772 234 334C234 389.228 278.772 434 334 434Z" stroke="#282728" stroke-width="66.6667"/>
</g>
<defs>
<clipPath id="clip0_4027_40">
<rect width="668" height="668" fill="white"/>
</clipPath>
</defs>
</svg>
