<svg xmlns="http://www.w3.org/2000/svg" width="48.068" height="60" viewBox="0 0 48.068 60">
  <g id="insurance" transform="translate(-10.667 -5.313)">
    <path id="Path_141" data-name="Path 141" d="M32,23.6a5.086,5.086,0,1,0,5.086,5.086A5.086,5.086,0,0,0,32,23.6Zm-7.753,5.086A7.753,7.753,0,1,1,32,36.439,7.753,7.753,0,0,1,24.247,28.686Z" transform="translate(2.701 1.79)" fill="#282728" fill-rule="evenodd"/>
    <path id="Path_142" data-name="Path 142" d="M34.7,37.012c-7.364,0-13.519,5.852-13.519,11.788a1.479,1.479,0,0,1-1.591,1.333A1.479,1.479,0,0,1,18,48.8c0-7.231,7.375-14.455,16.7-14.455S51.4,41.57,51.4,48.8a1.616,1.616,0,0,1-3.182,0C48.22,42.864,42.065,37.012,34.7,37.012Z" transform="translate(0 4.224)" fill="#282728" fill-rule="evenodd"/>
    <path id="Path_143" data-name="Path 143" d="M36.738,8.8a4.506,4.506,0,0,0-4.074,0L16.591,16.949a4.2,4.2,0,0,0-2.325,3.292c-.514,4.86-1.18,14.44.356,22.132.768,3.848,3.8,7.8,7.538,11.316A72.211,72.211,0,0,0,32.7,61.715a3.755,3.755,0,0,0,4.029.015,70.619,70.619,0,0,0,10.618-8.01c3.754-3.52,6.754-7.465,7.43-11.313a82.817,82.817,0,0,0,.385-22.23,4.126,4.126,0,0,0-2.292-3.2L36.738,8.8Zm-5.431-2.68a7.511,7.511,0,0,1,6.789,0L54.226,14.3a7.127,7.127,0,0,1,3.918,5.547,85.743,85.743,0,0,1-.411,23.082c-.853,4.852-4.475,9.367-8.335,12.986a73.619,73.619,0,0,1-11.086,8.367,6.76,6.76,0,0,1-7.222-.025A75.219,75.219,0,0,1,20.1,55.876c-3.844-3.618-7.467-8.11-8.426-12.915-1.63-8.17-.915-18.138-.4-23.036a7.209,7.209,0,0,1,3.954-5.657L31.306,6.123Z" transform="translate(0)" fill="#282728" fill-rule="evenodd"/>
  </g>
</svg>
