<svg xmlns="http://www.w3.org/2000/svg" width="56" height="60" viewBox="0 0 56 60">
  <path id="like" d="M61.436,78H45.925a16.838,16.838,0,0,1-7.513-1.781l-2.3-1.153A5.6,5.6,0,0,1,31.2,78H25.6A5.618,5.618,0,0,1,20,72.375v-30a5.618,5.618,0,0,1,5.6-5.625h8.07l7-17.571A1.868,1.868,0,0,1,42.4,18h1.083a9.359,9.359,0,0,1,9.287,10.309l-.84,8.441H66.667A9.365,9.365,0,0,1,76,46.125a17.484,17.484,0,0,1-.5,4.144L70.267,71.637c-.017.064-.035.128-.058.192A9.368,9.368,0,0,1,61.436,78ZM36.8,71.216l3.283,1.648a13.091,13.091,0,0,0,5.843,1.386H61.436a5.619,5.619,0,0,0,5.23-3.614l5.207-21.264a13.621,13.621,0,0,0,.393-3.247,5.618,5.618,0,0,0-5.6-5.625h-16.8a1.856,1.856,0,0,1-1.383-.617,1.881,1.881,0,0,1-.474-1.445l1.045-10.5a5.572,5.572,0,0,0-1.42-4.334,5.508,5.508,0,0,0-3.973-1.848L36.8,38.986ZM25.6,40.5a1.872,1.872,0,0,0-1.867,1.875v30A1.872,1.872,0,0,0,25.6,74.25h5.6a1.872,1.872,0,0,0,1.867-1.875V40.5Z" transform="translate(-20 -18)" fill="#282728"/>
</svg>
