<svg width="534" height="534" viewBox="0 0 534 534" fill="none" xmlns="http://www.w3.org/2000/svg">
<g clip-path="url(#clip0_4029_46)">
<path d="M491.001 0.332991H46.0006C40.265 0.0643244 34.5323 0.929333 29.1313 2.879C23.7303 4.82867 18.767 7.82432 14.525 11.6943C10.2833 15.5647 6.84632 20.2337 4.41132 25.4337C1.97632 30.634 0.590651 36.2633 0.333984 41.9997V488.001C0.669984 500.004 5.58931 511.427 14.0816 519.917C22.574 528.411 33.9953 533.331 46.0006 533.667H491.001C502.671 533.147 513.674 528.074 521.651 519.537C529.627 511.001 533.941 499.681 533.667 488.001V41.9997C533.764 36.4163 532.717 30.8727 530.594 25.708C528.471 20.5437 525.314 15.8673 521.317 11.9657C517.324 8.06432 512.574 5.02033 507.361 3.02C502.147 1.01967 496.581 0.105324 491.001 0.332991ZM167.001 445.001H89.334V207.334H167.001V445.001ZM130.001 171.333C124.581 171.522 119.181 170.588 114.139 168.59C109.098 166.592 104.524 163.573 100.705 159.723C96.886 155.872 93.9043 151.274 91.9477 146.216C89.9907 141.159 89.101 135.751 89.334 130.333C89.0943 124.856 90.002 119.39 91.999 114.285C93.996 109.18 97.038 104.549 100.93 100.688C104.822 96.8277 109.477 93.8233 114.598 91.868C119.72 89.9123 125.193 89.049 130.667 89.333C136.087 89.1443 141.487 90.078 146.529 92.076C151.57 94.074 156.144 97.093 159.963 100.943C163.782 104.794 166.764 109.392 168.72 114.45C170.677 119.507 171.567 124.915 171.334 130.333C171.574 135.81 170.666 141.276 168.669 146.381C166.672 151.486 163.63 156.117 159.738 159.978C155.846 163.838 151.191 166.843 146.07 168.798C140.948 170.754 135.475 171.617 130.001 171.333ZM445.001 445.001H367.001V315.001C367.001 284.001 356.001 262.667 328.334 262.667C319.741 262.741 311.377 265.471 304.397 270.484C297.414 275.497 292.154 282.547 289.334 290.667C287.167 296.754 286.261 303.217 286.667 309.667V445.001H210.001V207.334H286.667V240.667C293.484 228.144 303.627 217.751 315.981 210.631C328.334 203.514 342.414 199.95 356.667 200.333C407.001 200.333 445.001 233.667 445.001 304.667V445.001Z" fill="#282728"/>
</g>
<defs>
<clipPath id="clip0_4029_46">
<rect width="534" height="534" fill="white"/>
</clipPath>
</defs>
</svg>
