<svg id="g1917" xmlns="http://www.w3.org/2000/svg" width="141" height="34.5" viewBox="0 0 141 34.5">
  <g id="g1915">
    <g id="g1913">
      <g id="g1905" transform="translate(105.723)">
        <path id="path1901" d="M231.159,0H201.1a2.6,2.6,0,0,0-2.659,2.482V32.016a2.249,2.249,0,0,0,2.239,2.484h30.062c1.44,0,2.975-1.112,2.975-2.484V2.482A2.5,2.5,0,0,0,231.159,0" transform="translate(-198.437)" fill="#fff" fill-rule="evenodd"/>
        <path id="path1903" d="M231.159,0H201.1a2.6,2.6,0,0,0-2.659,2.482V32.016a2.249,2.249,0,0,0,2.239,2.484h30.062c1.44,0,2.975-1.112,2.975-2.484V2.482A2.5,2.5,0,0,0,231.159,0ZM211.876,13.143h4.749V15.51h.052c.724-1.276,2.862-2.573,5.507-2.573,5.075,0,6.491,2.635,6.491,7.516v9.118h-5.04V21.352c0-2.185-.892-4.1-2.978-4.1-2.533,0-3.741,1.677-3.741,4.431v7.891h-5.04Zm-8.4,16.429h5.04V13.143h-5.04Zm5.669-22.179A3.15,3.15,0,1,1,206,4.314a3.115,3.115,0,0,1,3.15,3.079Z" transform="translate(-198.437)" fill="#0a66c2" fill-rule="evenodd"/>
      </g>
      <g id="g1911" transform="translate(0 4.536)">
        <path id="path1907" d="M156.65,33.877h-4.7v-1.94h-.05c-1.047,1.176-2.864,2.143-5.945,2.143-4.2,0-7.816-3.063-7.816-8.328,0-5.016,3.565-8.364,7.974-8.364a6.765,6.765,0,0,1,5.451,2.143h.05V9.449h5.04Zm-9.274-12.824a4.293,4.293,0,0,0-4.5,4.64c0,2.65,1.619,4.724,4.5,4.724a4.385,4.385,0,0,0,4.571-4.724A4.282,4.282,0,0,0,147.376,21.052Zm-11.453,10.2c-1.189,1.493-3.639,2.827-7.593,2.827-5.275,0-8.634-3.387-8.634-8.708,0-4.727,3.042-7.984,8.782-7.984,4.957,0,8.015,3.156,8.015,8.708a7.638,7.638,0,0,1-.092,1.1H124.45l.029.5a3.845,3.845,0,0,0,3.934,3.12,5.506,5.506,0,0,0,4.371-2.036l3.141,2.466Zm-4.28-7.149a3.346,3.346,0,0,0-3.316-3.459,3.781,3.781,0,0,0-3.877,3.461h7.193Z" transform="translate(-55.86 -8.946)" fill="#0a66c2"/>
        <path id="path1909" d="M63.834,17.139H57.955l-5.879,6.516V8.994h-5.04V33.43h5.04V25.285l6.214,8.145h5.95l-7.124-8.906Zm-36.957,0h4.749v2.347h.052c.724-1.266,2.862-2.551,5.507-2.551,5.075,0,6.491,3.123,6.491,7.453V33.43h-5.04V25.28c0-2.4-.892-4.068-2.978-4.068-2.533,0-3.741,1.945-3.741,4.394V33.43h-5.04Zm-8.4,16.291h5.04V17.139h-5.04ZM21,14.37a3.045,3.045,0,0,0,2.678-1.445,2.856,2.856,0,0,0,0-2.972A3.045,3.045,0,0,0,21,8.507a2.932,2.932,0,1,0,0,5.863ZM5.04,8.994H0V33.43H15.119V28.543H5.04Z" transform="translate(0 -8.506)" fill="#0a66c2"/>
      </g>
    </g>
  </g>
</svg>
