<svg xmlns="http://www.w3.org/2000/svg" xmlns:xlink="http://www.w3.org/1999/xlink" width="358.004" height="46.004" viewBox="0 0 358.004 46.004">
  <defs>
    <clipPath id="clip-path">
      <ellipse id="Ellipse_13" data-name="Ellipse 13" cx="179.002" cy="23.002" rx="179.002" ry="23.002" fill="#1b1b1b"/>
    </clipPath>
  </defs>
  <g id="Mask_Group_7" data-name="Mask Group 7" clip-path="url(#clip-path)">
    <g id="Group_7" data-name="Group 7" transform="translate(61.606 13.192)">
      <path id="Path_33" data-name="Path 33" d="M212.231,104.5h-5.943l-5.134-6.921H198.9V104.5h-4.84V85.63h8.162a18.917,18.917,0,0,1,2.876.19,6.208,6.208,0,0,1,2.254.822,4.953,4.953,0,0,1,1.691,1.639,4.685,4.685,0,0,1,.627,2.526,5.621,5.621,0,0,1-.969,3.408,7.326,7.326,0,0,1-2.768,2.193l6.3,8.084ZM204.64,91.409a2.4,2.4,0,0,0-.29-1.215,1.963,1.963,0,0,0-1-.8,3.731,3.731,0,0,0-1.155-.247c-.441-.03-.952-.043-1.531-.043H198.9v5.082h1.5a14.329,14.329,0,0,0,1.951-.112,2.844,2.844,0,0,0,1.319-.519,2.473,2.473,0,0,0,.74-.869,2.915,2.915,0,0,0,.234-1.272Z" transform="translate(-194.06 -85.28)" fill="#1b1b1b"/>
      <path id="Path_34" data-name="Path 34" d="M252.962,104.5h-5.026l-1.315-3.815H239.64l-1.315,3.815h-4.9l6.968-18.867h5.6l6.968,18.867Zm-7.509-7.271-2.323-6.761-2.323,6.761h4.641Z" transform="translate(-216.395 -85.28)" fill="#1b1b1b"/>
      <path id="Path_35" data-name="Path 35" d="M299.329,104.5H294.64l-8.011-12.95V104.5H282.17V85.63h5.818l6.882,10.809V85.63h4.459Z" transform="translate(-244.059 -85.28)" fill="#1b1b1b"/>
      <path id="Path_36" data-name="Path 36" d="M347.893,104.491h-5.978l-5.64-7.552-1.129,1.393v6.155H330.28V85.62h4.866v8.547l6.739-8.547h5.64l-7.375,8.733,7.742,10.139Z" transform="translate(-271.36 -85.274)" fill="#1b1b1b"/>
      <path id="Path_37" data-name="Path 37" d="M411.414,104.5h-4.84V91.863l-3.5,8.2h-3.356l-3.5-8.2V104.5H391.63V85.63h5.653l4.243,9.464,4.235-9.464h5.653Z" transform="translate(-306.174 -85.28)" fill="#1b1b1b"/>
      <path id="Path_38" data-name="Path 38" d="M459.4,85.63,452.448,97.2v7.3h-4.866V97.43l-7.072-11.8h5.541l4.07,7.28,3.932-7.28h5.355Z" transform="translate(-333.912 -85.28)" fill="#1b1b1b"/>
      <path id="Path_39" data-name="Path 39" d="M521.272,98.713a5.28,5.28,0,0,1-.549,2.444,5.045,5.045,0,0,1-1.514,1.786,7.021,7.021,0,0,1-2.452,1.189,13.444,13.444,0,0,1-3.391.355H505.13V85.62h7.323a26.423,26.423,0,0,1,3.339.151,6.812,6.812,0,0,1,2.1.67,3.731,3.731,0,0,1,1.6,1.462,4.412,4.412,0,0,1-.195,4.511,4.707,4.707,0,0,1-2.042,1.626v.1a5.321,5.321,0,0,1,2.933,1.523,4.26,4.26,0,0,1,1.081,3.041Zm-6.237-7.755a2.09,2.09,0,0,0-.234-.939,1.455,1.455,0,0,0-.83-.7,4.056,4.056,0,0,0-1.324-.221c-.528-.013-1.267-.017-2.223-.017h-.454v3.992h.761c.77,0,1.423-.013,1.964-.039a3.458,3.458,0,0,0,1.28-.255,1.558,1.558,0,0,0,.861-.753,2.667,2.667,0,0,0,.2-1.073Zm1.181,7.682a2.385,2.385,0,0,0-.346-1.388,2.12,2.12,0,0,0-1.181-.727,6.277,6.277,0,0,0-1.57-.177c-.666-.009-1.362-.013-2.085-.013H509.97v4.7h.355c1.367,0,2.344,0,2.933-.013a4.285,4.285,0,0,0,1.631-.329,2,2,0,0,0,1.042-.843A2.492,2.492,0,0,0,516.216,98.639Z" transform="translate(-370.581 -85.274)" fill="#1b1b1b"/>
      <path id="Path_40" data-name="Path 40" d="M564.3,97.667a6.739,6.739,0,0,1-2.128,5.359q-2.128,1.862-6.272,1.864t-6.267-1.864a6.735,6.735,0,0,1-2.124-5.346V85.63H552.4V97.4a4.422,4.422,0,0,0,.822,2.928,3.347,3.347,0,0,0,2.673.965,3.419,3.419,0,0,0,2.669-.926,4.327,4.327,0,0,0,.843-2.967V85.63H564.3V97.667Z" transform="translate(-394.631 -85.28)" fill="#1b1b1b"/>
      <path id="Path_41" data-name="Path 41" d="M607.909,98.107a5.377,5.377,0,0,1-2.362,4.529,10.583,10.583,0,0,1-6.419,1.743,18.069,18.069,0,0,1-4.087-.411,20.564,20.564,0,0,1-3.261-1.047V98.4h.532a11.257,11.257,0,0,0,3.378,1.851,10.933,10.933,0,0,0,3.594.644,11.5,11.5,0,0,0,1.168-.078,4.524,4.524,0,0,0,1.176-.255,2.859,2.859,0,0,0,.917-.571,1.343,1.343,0,0,0,.359-1.012,1.376,1.376,0,0,0-.528-1.073,3.673,3.673,0,0,0-1.54-.692q-1.064-.253-2.249-.476a17.555,17.555,0,0,1-2.223-.562,6.977,6.977,0,0,1-3.426-2.1,5.14,5.14,0,0,1-1.047-3.287,5.066,5.066,0,0,1,2.362-4.3,10.3,10.3,0,0,1,6.077-1.665,19.064,19.064,0,0,1,3.681.359,17.342,17.342,0,0,1,3.149.9V90.43h-.519a10.026,10.026,0,0,0-2.794-1.527,9.6,9.6,0,0,0-3.378-.614,8.72,8.72,0,0,0-1.211.082,4.833,4.833,0,0,0-1.159.311,2.206,2.206,0,0,0-.848.575,1.261,1.261,0,0,0-.355.882,1.312,1.312,0,0,0,.571,1.146,6.378,6.378,0,0,0,2.154.727c.692.143,1.358.281,1.994.42a20.433,20.433,0,0,1,2.059.558,6.85,6.85,0,0,1,3.2,1.933,4.76,4.76,0,0,1,1.034,3.175Z" transform="translate(-419.752 -84.82)" fill="#1b1b1b"/>
      <path id="Path_42" data-name="Path 42" d="M641.129,88.973V85.63H636.25v3.343h0v12.18h0V104.5h4.875v-3.343h0V88.973Z" transform="translate(-444.988 -85.28)" fill="#1b1b1b"/>
      <path id="Path_43" data-name="Path 43" d="M673.289,104.5H668.6l-8.011-12.95V104.5H656.13V85.63h5.818l6.882,10.809V85.63h4.459Z" transform="translate(-456.269 -85.28)" fill="#1b1b1b"/>
      <path id="Path_44" data-name="Path 44" d="M717.877,104.5H704.23V85.63h13.646v3.651H709.07v3.257h8.175v3.651H709.07v4.663h8.806V104.5Z" transform="translate(-483.564 -85.28)" fill="#1b1b1b"/>
      <path id="Path_45" data-name="Path 45" d="M756.279,98.107a5.377,5.377,0,0,1-2.362,4.529,10.583,10.583,0,0,1-6.419,1.743,18.069,18.069,0,0,1-4.087-.411,20.562,20.562,0,0,1-3.261-1.047V98.4h.532a11.257,11.257,0,0,0,3.378,1.851,10.933,10.933,0,0,0,3.594.644,11.5,11.5,0,0,0,1.168-.078A4.525,4.525,0,0,0,750,100.56a2.858,2.858,0,0,0,.917-.571,1.343,1.343,0,0,0,.359-1.012,1.376,1.376,0,0,0-.528-1.073,3.673,3.673,0,0,0-1.54-.692q-1.064-.253-2.249-.476a17.557,17.557,0,0,1-2.223-.562,6.978,6.978,0,0,1-3.426-2.1,5.14,5.14,0,0,1-1.047-3.287,5.066,5.066,0,0,1,2.362-4.3A10.3,10.3,0,0,1,748.7,84.82a19.065,19.065,0,0,1,3.681.359,17.344,17.344,0,0,1,3.149.9V90.43h-.519a10.025,10.025,0,0,0-2.794-1.527,9.6,9.6,0,0,0-3.378-.614,8.721,8.721,0,0,0-1.211.082,4.834,4.834,0,0,0-1.159.311,2.207,2.207,0,0,0-.848.575,1.261,1.261,0,0,0-.355.882,1.312,1.312,0,0,0,.571,1.146,6.379,6.379,0,0,0,2.154.727c.692.143,1.358.281,1.994.42a20.424,20.424,0,0,1,2.059.558,6.851,6.851,0,0,1,3.2,1.933,4.76,4.76,0,0,1,1.034,3.175Z" transform="translate(-503.947 -84.82)" fill="#1b1b1b"/>
      <path id="Path_46" data-name="Path 46" d="M796.2,98.107a5.377,5.377,0,0,1-2.362,4.529,10.583,10.583,0,0,1-6.419,1.743,18.07,18.07,0,0,1-4.088-.411,20.564,20.564,0,0,1-3.261-1.047V98.4h.532a11.256,11.256,0,0,0,3.378,1.851,10.932,10.932,0,0,0,3.594.644,11.5,11.5,0,0,0,1.168-.078,4.524,4.524,0,0,0,1.176-.255,2.858,2.858,0,0,0,.917-.571,1.343,1.343,0,0,0,.359-1.012,1.376,1.376,0,0,0-.528-1.073,3.673,3.673,0,0,0-1.54-.692q-1.064-.253-2.249-.476a17.559,17.559,0,0,1-2.223-.562,6.977,6.977,0,0,1-3.426-2.1,5.14,5.14,0,0,1-1.047-3.287,5.066,5.066,0,0,1,2.362-4.3,10.3,10.3,0,0,1,6.077-1.665,19.064,19.064,0,0,1,3.681.359,17.342,17.342,0,0,1,3.149.9V90.43h-.519a10.026,10.026,0,0,0-2.794-1.527,9.6,9.6,0,0,0-3.378-.614,8.721,8.721,0,0,0-1.211.082,4.832,4.832,0,0,0-1.159.311,2.205,2.205,0,0,0-.848.575,1.261,1.261,0,0,0-.355.882,1.311,1.311,0,0,0,.571,1.146,6.379,6.379,0,0,0,2.154.727c.692.143,1.358.281,1.994.42a20.431,20.431,0,0,1,2.059.558,6.85,6.85,0,0,1,3.2,1.933A4.759,4.759,0,0,1,796.2,98.1Z" transform="translate(-526.6 -84.82)" fill="#1b1b1b"/>
    </g>
  </g>
</svg>
