<svg xmlns="http://www.w3.org/2000/svg" width="52" height="60" viewBox="0 0 52 60">
  <path id="makeup-kit" d="M11,62H53a5.006,5.006,0,0,0,5-5V7a5.006,5.006,0,0,0-5-5H11A5.006,5.006,0,0,0,6,7V57a5.006,5.006,0,0,0,5,5Zm42-2H11a3,3,0,0,1-3-3V42h4V55a3,3,0,0,0,6,0V42h8V55a3,3,0,0,0,6,0V42h6V55a3,3,0,0,0,6,0V42h4V55a3,3,0,0,0,6,0V42h2V57a3,3,0,0,1-3,3ZM8,34H56v6H8Zm4-23.058a3,3,0,1,1,6,0L17.117,18H12.883ZM16.1,28H13.91l-.8-8H16.9ZM14,30h2v2H14Zm16.1-2H27.91l-.8-8H30.9Zm1.212-10H26.693l-2.25-6h9.114ZM28,30h2v2H28ZM40,20h2v8H40Zm2-2H40V17a1,1,0,0,1,2,0ZM40,30h2v2H40ZM50,20h2v8H50Zm2-2H50V16.781l2-.5ZM50,30h2v2H50Zm0,12h2V55a1,1,0,0,1-2,0ZM40,42h2V55a1,1,0,0,1-2,0ZM28,42h2V55a1,1,0,0,1-2,0ZM14,42h2V55a1,1,0,0,1-2,0ZM11,4H53a3,3,0,0,1,3,3V32H54V15a1,1,0,0,0-1.243-.97l-4,1A1,1,0,0,0,48,16V32H44V17a3,3,0,0,0-6,0V32H32V29.051l.982-9.821,2.955-7.878A1,1,0,0,0,35,10H23a1,1,0,0,0-.937,1.352l2.955,7.878L26,29.051V32H18V29.051L19,19.1l1-7.98A.861.861,0,0,0,20,11a5,5,0,0,0-10,0,.861.861,0,0,0,.008.124l1,7.98L12,29.051V32H8V7a3,3,0,0,1,3-3Z" transform="translate(-6 -2)" fill="#282728"/>
</svg>
