<svg xmlns="http://www.w3.org/2000/svg" width="172.518" height="70" viewBox="0 0 172.518 70">
  <g id="nitai-logo" transform="translate(0 0.018)">
    <path id="Path_169" data-name="Path 169" d="M0,57.253c0-4.244,3.6-7.843,7.2-7.843,3.216,0,5.016,1.8,5.016,4.244A5.713,5.713,0,0,1,9.9,57.9c-1.158,1.164-2.315,1.93-2.573,3.473-.259,2.443,2.315,4.244,8.746,4.244,10.417,0,24.436-5.787,36.14-14.791,11.7-8.874,20.077-17.945,26.636-30.421.517-1.035,4.349-7.283,5.119-8.441,1.164-1.544,3.216-3.86,5.145-3.986,1.543-.129,1.929.647,1.286,1.671a21.752,21.752,0,0,0-3.086,7.2c-.905,3.986-1.158,9.775-1.671,15.691-.776,9.9-2.058,15.691-3.6,19.42h.129C90.4,40,101.979,24.951,110.59,15.82S127.83,0,135.676,0a7.463,7.463,0,0,1,7.974,7.2c0,.647,0,1.287-.388,1.287-.259,0-.388-.776-.647-1.287-.776-2.058-3.344-3.473-7.331-3.473-9,0-17.493,6.816-23.67,13.248-12.078,12.6-24.94,30.74-33.815,43.6-.905,1.158-1.929,2.829-3.216,2.058-1.158-.647-.776-2.187-.259-3.473a73.025,73.025,0,0,0,4.244-20.577c.776-8.232.836-14.616,2.251-18.48l-2.869,4.543c-5.144,9.9-14.932,19.746-24.964,27.333-12.346,9.26-26.107,15.047-37.039,15.3C8.36,67.415,0,65.1,0,57.383Z" fill="#fff"/>
    <path id="Path_170" data-name="Path 170" d="M140.461,59.893c3.6,0,3.492-.239,1.26,1.994-1.89,2.1-3.363,3.88-5.458,6.4a47.845,47.845,0,0,0-3.673,5.143c-.63,1.154-.733,1.888-.314,2.309.525.419,1.469.21,2.52-.316a27.8,27.8,0,0,0,4.619-3.148c2.2-1.785,3.148-2.624,4.828-4.2.944-.839,1.363-1.26,1.681-.944s-.839,1.365-1.155,1.681c-1.259,1.26-3.88,3.569-5.982,5.248-2.52,1.994-5.773,4.3-9.132,4.3h-.1c-2.1,0-3.043-1.155-3.043-2.729a7.62,7.62,0,0,1,1.574-3.989c2.1-3.254,7.921-9.158,9.237-10.606s.877-1.155,3.148-1.155m3.787-8.217c.736-1.574,2.2-1.994,4.2-1.994,1.468,0,2.1,1.155.839,2.729a8.1,8.1,0,0,1-4.933,2.834,4.094,4.094,0,0,1-.1-3.569" transform="translate(-40.956 -16.084)" fill="#fff"/>
    <path id="Path_171" data-name="Path 171" d="M152.956,66.364c-.735.631-1.049.735-1.259.525s0-.631.733-1.26c2.835-2.52,5.668-5.044,7.662-6.823-1.363,0-2.52.1-3.778.1-.735,0-1.26,0-1.154-.524.1-.42,1.154-.525,2.833-.63,1.365-.1,2.52-.1,2.939-.1A142.315,142.315,0,0,1,170.8,46.737c1.89-1.89,4.408-4.3,6.612-4.3,1.05,0,1.471.314,1.575.63-1.26,1.155-3.989,4.094-6.4,6.823s-4.3,5.038-6.4,7.761c2.414-.1,4.3-.1,5.984-.1.839,0,1.574.1,1.469.63-.1.629-1.05.524-1.89.524-2.309,0-3.988,0-6.4.1a78.438,78.438,0,0,0-7.556,11.547c-.63,1.154-.946,2.623-.106,3.044a3.5,3.5,0,0,0,2.624-.42,28.118,28.118,0,0,0,4.724-3.148c1.89-1.469,3.673-3.148,4.932-4.2.525-.419,1.155-1.05,1.469-.735.21.211,0,.525-.735,1.26a81.442,81.442,0,0,1-6.4,5.562c-1.89,1.469-5.668,4.3-9.657,4.3-2.414,0-3.254-1.366-3.148-2.939.211-2.624,2.624-6.4,5.669-10.39-1.681,1.363-2.94,2.52-4.2,3.673" transform="translate(-49.041 -13.738)" fill="#fff"/>
    <path id="Path_172" data-name="Path 172" d="M204.334,64.433c2.2-.1,2.414.42,1.363,1.681-1.363,1.574-3.673,4.2-5.877,6.928a38.926,38.926,0,0,0-3.673,5.143c-.735,1.259-.735,2.1-.314,2.414.525.419,1.574,0,2.414-.42a32.233,32.233,0,0,0,4.722-3.253c2.2-1.785,3.88-3.254,5.044-4.3.63-.525,1.155-1.049,1.469-.735s-.21.839-1.365,1.89c-1.363,1.259-3.88,3.464-5.877,5.044-2.1,1.681-5.562,4.2-9.026,4.2-1.995,0-2.939-.944-3.043-2.2a5.759,5.759,0,0,1,1.469-3.778l-.1-.1c-2.729,2.414-7.556,5.877-11.545,6.087-2.309.106-4.722-.839-4.3-4.2a10.793,10.793,0,0,1,2.937-5.458l-.1-.1c-.314.314-.733.735-1.363,1.26-.42.314-.735.524-.944.314-.211-.314.314-.944,1.468-1.994.316-.316,2.1-1.785,3.15-2.52a46.849,46.849,0,0,1,4.828-2.939c4.092-2.1,7.761-3.363,10.5-2.94a2.815,2.815,0,0,1,2.2,3.989c2.52-2.624,4.3-3.989,5.984-3.989m-18.264,7.662c-4.3,4.2-6.088,6.928-5.877,8.291a1.2,1.2,0,0,0,1.366,1.05c1.993,0,5.984-2.309,8.816-4.933,3.363-2.939,7.137-7.452,7.243-9.13.1-1.366-.736-1.89-1.89-1.89-2.1,0-5.877,2.834-9.657,6.612" transform="translate(-56.861 -20.835)" fill="#fff"/>
    <path id="Path_173" data-name="Path 173" d="M226.808,65.772c-1.574,1.259-2.729,2.2-3.778,3.148-.839.733-1.26,1.049-1.574.839-.21-.211,0-.63,1.155-1.681a84.391,84.391,0,0,1,7.452-5.877c2.729-1.89,4.094-2.309,6.088-2.309,2.2,0,2.414.314,1.155,1.681-1.89,2.1-3.569,4.094-5.667,6.718a47.634,47.634,0,0,0-3.673,5.143c-.63,1.154-.735,1.888-.316,2.309.525.42,1.469.211,2.52-.314a27.818,27.818,0,0,0,4.619-3.148c2.2-1.785,3.148-2.624,4.828-4.2.944-.839,1.365-1.26,1.681-.944s-.839,1.365-1.155,1.681c-1.26,1.26-3.88,3.57-5.984,5.248s-5.668,4.3-9.132,4.3c-2.2,0-3.148-1.05-3.148-2.729a7.62,7.62,0,0,1,1.574-3.988,55.427,55.427,0,0,1,7.872-9.027,33.4,33.4,0,0,0-4.514,3.148m15.964-16.091c1.366,0,1.995,1.155.736,2.729a8.1,8.1,0,0,1-4.935,2.834,4.091,4.091,0,0,1-.1-3.569c.63-1.574,2.2-1.994,4.2-1.994Z" transform="translate(-71.674 -16.084)" fill="#fff"/>
    <path id="Path_174" data-name="Path 174" d="M61.74,101.3V98.173l-1.293,2.37h-.379l-1.293-2.37V101.3h-.686V96.958h.735l1.438,2.657L61.7,96.958h.735v4.347Z" transform="translate(-18.805 -31.391)" fill="#fff"/>
    <path id="Path_175" data-name="Path 175" d="M71.063,100.7v.607H68.081V96.96h2.93v.605H68.768V98.8h1.94v.569h-1.94V100.7Z" transform="translate(-22.042 -31.391)" fill="#fff"/>
    <path id="Path_176" data-name="Path 176" d="M75.659,101.3V96.957H77.2a2.308,2.308,0,0,1,.921.172,1.9,1.9,0,0,1,.661.466,1.957,1.957,0,0,1,.4.689,2.579,2.579,0,0,1,.129.842,2.526,2.526,0,0,1-.15.9,1.954,1.954,0,0,1-.426.687,1.9,1.9,0,0,1-.667.44,2.328,2.328,0,0,1-.876.156Zm2.963-2.179a2.015,2.015,0,0,0-.1-.631A1.366,1.366,0,0,0,78.249,98a1.293,1.293,0,0,0-.448-.321,1.47,1.47,0,0,0-.6-.118h-.858V100.7H77.2a1.475,1.475,0,0,0,.609-.119,1.277,1.277,0,0,0,.444-.336,1.423,1.423,0,0,0,.273-.5,2.041,2.041,0,0,0,.092-.625" transform="translate(-24.495 -31.389)" fill="#fff"/>
    <rect id="Rectangle_613" data-name="Rectangle 613" width="0.686" height="4.347" transform="translate(56.98 65.568)" fill="#fff"/>
    <path id="Path_177" data-name="Path 177" d="M88.434,99.089a2.286,2.286,0,0,1,.141-.776,2.168,2.168,0,0,1,.413-.7,2.088,2.088,0,0,1,.665-.5,2.017,2.017,0,0,1,.889-.194,1.89,1.89,0,0,1,1.017.259,1.717,1.717,0,0,1,.636.686l-.539.362a1.212,1.212,0,0,0-.22-.331,1.072,1.072,0,0,0-.282-.215,1.247,1.247,0,0,0-.318-.113,1.571,1.571,0,0,0-.318-.034,1.252,1.252,0,0,0-.6.137,1.331,1.331,0,0,0-.432.365,1.634,1.634,0,0,0-.259.508,1.881,1.881,0,0,0-.088.563,1.757,1.757,0,0,0,.1.607,1.64,1.64,0,0,0,.291.508,1.423,1.423,0,0,0,.444.352,1.209,1.209,0,0,0,.564.129,1.386,1.386,0,0,0,.327-.039,1.256,1.256,0,0,0,.325-.129,1.275,1.275,0,0,0,.288-.224,1.093,1.093,0,0,0,.217-.325l.569.325a1.33,1.33,0,0,1-.294.432,1.918,1.918,0,0,1-.428.316,2.187,2.187,0,0,1-.506.2,2.1,2.1,0,0,1-.517.069,1.811,1.811,0,0,1-.839-.2,2.222,2.222,0,0,1-.656-.517,2.365,2.365,0,0,1-.428-.717,2.265,2.265,0,0,1-.153-.817" transform="translate(-28.631 -31.378)" fill="#fff"/>
    <path id="Path_178" data-name="Path 178" d="M98.129,96.958h.6l1.714,4.347h-.718l-.459-1.182H97.584l-.453,1.182H96.4Zm1,2.657-.7-1.868-.723,1.868Z" transform="translate(-31.211 -31.391)" fill="#fff"/>
    <path id="Path_179" data-name="Path 179" d="M105.293,101.3V96.958h.686V100.7h2.328v.607Z" transform="translate(-34.089 -31.391)" fill="#fff"/>
    <path id="Path_180" data-name="Path 180" d="M119.568,101.277l-.4-.415a1.959,1.959,0,0,1-.591.354,1.854,1.854,0,0,1-.67.129,1.651,1.651,0,0,1-.582-.1,1.39,1.39,0,0,1-.453-.266,1.176,1.176,0,0,1-.4-.885,1.138,1.138,0,0,1,.063-.388,1.329,1.329,0,0,1,.175-.331,1.633,1.633,0,0,1,.259-.282,3.647,3.647,0,0,1,.307-.239,3.309,3.309,0,0,1-.235-.281,1.881,1.881,0,0,1-.154-.242,1.106,1.106,0,0,1-.085-.22.9.9,0,0,1-.027-.224.932.932,0,0,1,.089-.406.983.983,0,0,1,.242-.322,1.109,1.109,0,0,1,.363-.208,1.407,1.407,0,0,1,.457-.074,1.439,1.439,0,0,1,.423.062,1.1,1.1,0,0,1,.356.177.828.828,0,0,1,.242.291.914.914,0,0,1,.025.732,1.23,1.23,0,0,1-.175.291,1.838,1.838,0,0,1-.259.259,3.234,3.234,0,0,1-.322.242l.979,1.035a2.276,2.276,0,0,0,.163-.463,2.328,2.328,0,0,0,.058-.529h.551a3.023,3.023,0,0,1-.1.768,2.4,2.4,0,0,1-.276.634l.869.905Zm-1.586-.472a1.155,1.155,0,0,0,.437-.085,1.34,1.34,0,0,0,.388-.246l-1.127-1.194a1.941,1.941,0,0,0-.4.374.7.7,0,0,0-.153.442.622.622,0,0,0,.067.291.674.674,0,0,0,.186.224.943.943,0,0,0,.273.144,1.016,1.016,0,0,0,.331.052m-.587-2.939a.388.388,0,0,0,.018.12.615.615,0,0,0,.063.129,1.234,1.234,0,0,0,.129.166l.206.225a2.494,2.494,0,0,0,.444-.339.5.5,0,0,0,.163-.358.4.4,0,0,0-.138-.316.517.517,0,0,0-.352-.12.536.536,0,0,0-.388.144.467.467,0,0,0-.15.347" transform="translate(-37.709 -31.364)" fill="#fff"/>
    <path id="Path_181" data-name="Path 181" d="M129.178,99.089a2.285,2.285,0,0,1,.141-.776,2.17,2.17,0,0,1,.414-.7,2.07,2.07,0,0,1,.664-.5,2.017,2.017,0,0,1,.887-.19,1.89,1.89,0,0,1,1.017.259,1.71,1.71,0,0,1,.636.686l-.539.362a1.212,1.212,0,0,0-.22-.331,1.062,1.062,0,0,0-.282-.215,1.229,1.229,0,0,0-.317-.113,1.577,1.577,0,0,0-.318-.034,1.251,1.251,0,0,0-.6.137,1.331,1.331,0,0,0-.432.365,1.633,1.633,0,0,0-.259.508,1.88,1.88,0,0,0-.088.563,1.779,1.779,0,0,0,.1.607,1.655,1.655,0,0,0,.291.508,1.433,1.433,0,0,0,.445.352,1.209,1.209,0,0,0,.564.129,1.387,1.387,0,0,0,.327-.039,1.269,1.269,0,0,0,.613-.353,1.126,1.126,0,0,0,.217-.325l.569.325a1.315,1.315,0,0,1-.294.432,1.918,1.918,0,0,1-.428.316,2.178,2.178,0,0,1-.5.2,2.107,2.107,0,0,1-.524.069,1.8,1.8,0,0,1-.839-.2,2.212,2.212,0,0,1-.656-.517,2.347,2.347,0,0,1-.428-.717,2.284,2.284,0,0,1-.153-.817" transform="translate(-41.822 -31.378)" fill="#fff"/>
    <path id="Path_182" data-name="Path 182" d="M139.508,101.321a1.917,1.917,0,0,1-.848-.188,2.108,2.108,0,0,1-.658-.5,2.267,2.267,0,0,1-.426-.706,2.307,2.307,0,0,1-.15-.815,2.222,2.222,0,0,1,.159-.832,2.3,2.3,0,0,1,.438-.7,2.079,2.079,0,0,1,.661-.486,1.926,1.926,0,0,1,.836-.181,1.859,1.859,0,0,1,.847.193,2.133,2.133,0,0,1,.656.5,2.328,2.328,0,0,1,.423.708,2.273,2.273,0,0,1,0,1.638,2.19,2.19,0,0,1-.438.7,2.14,2.14,0,0,1-.665.482,1.91,1.91,0,0,1-.829.182m-1.384-2.2a1.832,1.832,0,0,0,.1.595,1.628,1.628,0,0,0,.279.508,1.361,1.361,0,0,0,.437.352,1.239,1.239,0,0,0,.576.129,1.212,1.212,0,0,0,.585-.137,1.384,1.384,0,0,0,.431-.365,1.629,1.629,0,0,0,.269-.508,1.844,1.844,0,0,0,.092-.576,1.824,1.824,0,0,0-.1-.6,1.566,1.566,0,0,0-.279-.5,1.373,1.373,0,0,0-.435-.349,1.2,1.2,0,0,0-.567-.129,1.225,1.225,0,0,0-.587.138,1.409,1.409,0,0,0-.435.358,1.606,1.606,0,0,0-.273.5,1.824,1.824,0,0,0-.094.578" transform="translate(-44.492 -31.375)" fill="#fff"/>
    <path id="Path_183" data-name="Path 183" d="M149.175,97.966a.94.94,0,0,0-.177-.145,1.88,1.88,0,0,0-.273-.144,1.912,1.912,0,0,0-.341-.11,1.692,1.692,0,0,0-.388-.043,1.035,1.035,0,0,0-.639.159.528.528,0,0,0-.206.441.476.476,0,0,0,.065.259.547.547,0,0,0,.2.178,1.614,1.614,0,0,0,.336.129q.2.059.472.129a5.391,5.391,0,0,1,.6.178,1.712,1.712,0,0,1,.45.239.965.965,0,0,1,.285.347,1.106,1.106,0,0,1,.1.5,1.206,1.206,0,0,1-.129.569,1.081,1.081,0,0,1-.341.388,1.532,1.532,0,0,1-.506.22,2.625,2.625,0,0,1-.618.07,3.088,3.088,0,0,1-.957-.15,2.766,2.766,0,0,1-.836-.438l.312-.587a1.506,1.506,0,0,0,.23.177,2.117,2.117,0,0,0,.348.18,2.975,2.975,0,0,0,.432.141,1.959,1.959,0,0,0,.484.058,1.154,1.154,0,0,0,.625-.142.46.46,0,0,0,.22-.415.444.444,0,0,0-.083-.277.683.683,0,0,0-.235-.191,2.042,2.042,0,0,0-.374-.15q-.22-.069-.5-.141a5.482,5.482,0,0,1-.567-.18,1.444,1.444,0,0,1-.4-.23.89.89,0,0,1-.242-.314,1.035,1.035,0,0,1-.083-.438,1.271,1.271,0,0,1,.123-.567,1.2,1.2,0,0,1,.334-.415,1.437,1.437,0,0,1,.5-.259,2.16,2.16,0,0,1,.625-.085,2.3,2.3,0,0,1,.815.141,2.687,2.687,0,0,1,.656.348Z" transform="translate(-47.356 -31.375)" fill="#fff"/>
    <path id="Path_184" data-name="Path 184" d="M158.067,101.3V98.173l-1.293,2.37h-.379l-1.293-2.37V101.3h-.686V96.958h.736l1.438,2.657,1.438-2.657h.735v4.347Z" transform="translate(-49.992 -31.391)" fill="#fff"/>
    <path id="Path_185" data-name="Path 185" d="M167.389,100.7v.607h-2.981V96.96h2.927v.605h-2.242V98.8h1.94v.569h-1.94V100.7Z" transform="translate(-53.227 -31.391)" fill="#fff"/>
    <path id="Path_186" data-name="Path 186" d="M174.986,97.564h-1.445V101.3h-.692V97.564H171.4v-.605h3.588Z" transform="translate(-55.49 -31.391)" fill="#fff"/>
    <rect id="Rectangle_614" data-name="Rectangle 614" width="0.686" height="4.347" transform="translate(121.509 65.568)" fill="#fff"/>
    <path id="Path_187" data-name="Path 187" d="M183.855,99.089a2.286,2.286,0,0,1,.141-.776,2.17,2.17,0,0,1,.414-.7,2.07,2.07,0,0,1,.664-.5,2.016,2.016,0,0,1,.887-.19,1.89,1.89,0,0,1,1.017.259,1.71,1.71,0,0,1,.636.686l-.539.362a1.209,1.209,0,0,0-.22-.331,1.063,1.063,0,0,0-.282-.215,1.228,1.228,0,0,0-.317-.113,1.577,1.577,0,0,0-.318-.034,1.251,1.251,0,0,0-.6.137,1.331,1.331,0,0,0-.432.365,1.634,1.634,0,0,0-.259.508,1.881,1.881,0,0,0-.088.563,1.777,1.777,0,0,0,.1.607,1.655,1.655,0,0,0,.291.508,1.433,1.433,0,0,0,.445.352,1.209,1.209,0,0,0,.564.129,1.387,1.387,0,0,0,.327-.039,1.269,1.269,0,0,0,.613-.353,1.127,1.127,0,0,0,.217-.325l.569.325a1.317,1.317,0,0,1-.294.432,1.917,1.917,0,0,1-.428.316,2.181,2.181,0,0,1-.5.2,2.106,2.106,0,0,1-.524.069,1.8,1.8,0,0,1-.839-.2,2.211,2.211,0,0,1-.656-.517,2.347,2.347,0,0,1-.428-.717,2.284,2.284,0,0,1-.153-.817" transform="translate(-59.523 -31.378)" fill="#fff"/>
    <path id="Path_188" data-name="Path 188" d="M196.522,99.089a2.285,2.285,0,0,1,.141-.776,2.171,2.171,0,0,1,.414-.7,2.07,2.07,0,0,1,.664-.5,2.017,2.017,0,0,1,.887-.19,1.89,1.89,0,0,1,1.017.259,1.71,1.71,0,0,1,.636.686l-.539.362a1.211,1.211,0,0,0-.22-.331,1.062,1.062,0,0,0-.282-.215,1.229,1.229,0,0,0-.317-.113,1.577,1.577,0,0,0-.318-.034,1.251,1.251,0,0,0-.6.137,1.331,1.331,0,0,0-.432.365,1.634,1.634,0,0,0-.259.508,1.881,1.881,0,0,0-.088.563,1.779,1.779,0,0,0,.1.607,1.655,1.655,0,0,0,.291.508,1.434,1.434,0,0,0,.445.352,1.209,1.209,0,0,0,.564.129,1.386,1.386,0,0,0,.327-.039,1.269,1.269,0,0,0,.613-.353,1.126,1.126,0,0,0,.217-.325l.569.325a1.315,1.315,0,0,1-.294.432,1.917,1.917,0,0,1-.428.316,2.178,2.178,0,0,1-.5.2,2.107,2.107,0,0,1-.524.069,1.8,1.8,0,0,1-.839-.2,2.212,2.212,0,0,1-.656-.517,2.348,2.348,0,0,1-.428-.717,2.284,2.284,0,0,1-.153-.817" transform="translate(-63.625 -31.378)" fill="#fff"/>
    <path id="Path_189" data-name="Path 189" d="M208.222,100.7v.607h-2.981V96.96h2.927v.605h-2.242V98.8h1.94v.569h-1.94V100.7Z" transform="translate(-66.447 -31.391)" fill="#fff"/>
    <path id="Path_190" data-name="Path 190" d="M213.5,98.244v3.062h-.686V96.958h.539l2.486,3.135v-3.13h.692V101.3h-.569Z" transform="translate(-68.901 -31.391)" fill="#fff"/>
    <path id="Path_191" data-name="Path 191" d="M224.882,97.564h-1.445V101.3h-.692V97.564h-1.451v-.605h3.588Z" transform="translate(-71.644 -31.391)" fill="#fff"/>
    <path id="Path_192" data-name="Path 192" d="M229.577,101.306V96.958h1.892a1.209,1.209,0,0,1,.542.123,1.4,1.4,0,0,1,.426.321,1.526,1.526,0,0,1,.279.454,1.383,1.383,0,0,1,.1.517,1.449,1.449,0,0,1-.233.8,1.206,1.206,0,0,1-.269.3,1.118,1.118,0,0,1-.349.188l1.023,1.653h-.776l-.944-1.512h-1v1.512Zm.686-2.119h1.2a.555.555,0,0,0,.266-.063.646.646,0,0,0,.2-.177.886.886,0,0,0,.129-.259.969.969,0,0,0,.049-.312.846.846,0,0,0-.058-.312.9.9,0,0,0-.153-.259.717.717,0,0,0-.22-.175.556.556,0,0,0-.259-.065h-1.164Z" transform="translate(-74.327 -31.391)" fill="#fff"/>
    <path id="Path_193" data-name="Path 193" d="M240.662,100.7v.607H237.68V96.96h2.927v.605h-2.242V98.8h1.94v.569h-1.94V100.7Z" transform="translate(-76.95 -31.391)" fill="#fff"/>
  </g>
</svg>
