<svg xmlns="http://www.w3.org/2000/svg" width="70" height="60" viewBox="0 0 70 60">
  <g id="online-shopping" transform="translate(-1.5 -3.5)">
    <path id="Path_128" data-name="Path 128" d="M1.5,11.831A8.332,8.332,0,0,1,9.833,3.5H63.167A8.332,8.332,0,0,1,71.5,11.831V45.154a8.332,8.332,0,0,1-8.333,8.331H56.5a1.666,1.666,0,1,1,0-3.332h6.667a5,5,0,0,0,5-5V11.831a5,5,0,0,0-5-5H9.833a5,5,0,0,0-5,5V45.154a5,5,0,0,0,5,5H48.167a1.666,1.666,0,1,1,0,3.332H9.833A8.332,8.332,0,0,1,1.5,45.154Z" transform="translate(0 0)" fill="#282728" fill-rule="evenodd"/>
    <path id="Path_129" data-name="Path 129" d="M7.787,10.234A1.669,1.669,0,0,1,9.169,9.5H35.875a1.669,1.669,0,0,1,1.549,2.29l-4.5,11.253a5.007,5.007,0,0,1-4.65,3.148H16.77a5.008,5.008,0,0,1-4.65-3.149L7.62,11.79a1.669,1.669,0,0,1,.167-1.556m3.849,2.6L15.221,21.8a1.669,1.669,0,0,0,1.549,1.048h11.5a1.669,1.669,0,0,0,1.549-1.048l3.589-8.967ZM22.522,36.206a1.669,1.669,0,0,1,1.669,1.669V47.89a1.669,1.669,0,1,1-3.338,0V37.875a1.669,1.669,0,0,1,1.669-1.669" transform="translate(13.978 13.941)" fill="#282728" fill-rule="evenodd"/>
    <path id="Path_130" data-name="Path 130" d="M8.5,52.566A1.669,1.669,0,0,1,10.169,50.9H30.2a1.669,1.669,0,1,1,0,3.338H10.169A1.669,1.669,0,0,1,8.5,52.566M31.2,7.834a1.669,1.669,0,0,1,.334,2.337l-5.007,6.677a1.669,1.669,0,0,1-2.671-2l5.007-6.677A1.669,1.669,0,0,1,31.2,7.834m-22.032,0a1.669,1.669,0,0,0-.334,2.337l5.007,6.677a1.669,1.669,0,0,0,2.671-2L11.5,8.168a1.669,1.669,0,0,0-2.337-.334" transform="translate(16.316 9.264)" fill="#282728" fill-rule="evenodd"/>
  </g>
</svg>
