<svg xmlns="http://www.w3.org/2000/svg" width="104.771" height="105.122" viewBox="0 0 104.771 105.122">
  <path id="_004" data-name="004" d="M104.04,64.147a49.046,49.046,0,0,1-40.8,40.74m0,0,2.517-2.679m-2.517,2.679,2.605,2.594M7.166,48.732a49.046,49.046,0,0,1,40.8-40.74m0,0-2.517,2.679m2.517-2.679L45.36,5.4M47.9,104.876a49.047,49.047,0,0,1-40.741-40.8m0,0,2.679,2.517M7.155,64.077,4.561,66.682M63.311,8a49.046,49.046,0,0,1,40.741,40.8m0,0-2.679-2.517m2.679,2.517,2.594-2.605M71.876,64.142C71.328,74.363,69.7,83.807,67.238,91.12a39.724,39.724,0,0,1-4.04,8.79M39.274,48.738c.548-10.222,2.171-19.666,4.638-26.979a39.723,39.723,0,0,1,4.04-8.79m-8.682,51.1c.543,10.224,2.162,19.675,4.625,27a39.8,39.8,0,0,0,4.057,8.84M39.27,64.072l2.679,2.517M39.27,64.072l-2.594,2.605m35.2-17.869c-.543-10.224-2.162-19.675-4.625-27a39.8,39.8,0,0,0-4.057-8.84M71.88,48.808,69.2,46.291m2.679,2.517L74.473,46.2M47.952,12.969,48.975,16.5m-1.024-3.531-3.559.921M63.2,99.91,62.174,96.38M63.2,99.91l3.559-.921M47.873,72.74c-10.222-.548-19.666-2.171-26.979-4.638a39.722,39.722,0,0,1-8.79-4.04M63.277,40.139c10.222.548,19.666,2.171,26.979,4.638a39.723,39.723,0,0,1,8.79,4.04m-51.1-8.681c-10.224.543-19.675,2.162-27,4.625a39.806,39.806,0,0,0-8.84,4.057m35.839-8.681-2.517,2.679m2.517-2.679-2.605-2.594m17.869,35.2c10.224-.543,19.675-2.162,27-4.625a39.8,39.8,0,0,0,8.84-4.057M63.207,72.744l2.517-2.679m-2.517,2.679,2.605,2.594M99.046,48.817,95.515,49.84m3.531-1.024-.921-3.559M12.1,64.063l3.531-1.024M12.1,64.063l.921,3.559m40.14-60H55.5m0,0h2.336m-2.336,0V5.285m0,2.336V9.956M53.164,39.413H55.5m0,0h2.336m-2.336,0V37.078m0,2.336v2.335M53.164,71.206H55.5m0,0h2.336m-2.336,0V68.871m0,2.336v2.336M53.164,103H55.5m0,0h2.336M55.5,103v-2.335m0,2.335v2.336M105.526,55.31h-4.671m-27.123,0H69.061m-27.123,0H37.267m-27.123,0H5.473m54.321-15.9A4.294,4.294,0,1,1,55.5,35.119,4.294,4.294,0,0,1,59.794,39.413ZM71.4,59.6a4.294,4.294,0,1,1,4.294-4.294A4.294,4.294,0,0,1,71.4,59.6ZM59.794,103A4.294,4.294,0,1,1,55.5,98.705,4.295,4.295,0,0,1,59.794,103ZM7.809,59.6A4.294,4.294,0,1,1,12.1,55.31,4.294,4.294,0,0,1,7.809,59.6ZM59.794,7.62A4.294,4.294,0,1,1,55.5,3.326,4.294,4.294,0,0,1,59.794,7.62ZM103.19,59.6a4.294,4.294,0,1,1,4.295-4.294A4.295,4.295,0,0,1,103.19,59.6Zm-43.4,11.6A4.294,4.294,0,1,1,55.5,66.912,4.294,4.294,0,0,1,59.794,71.206ZM39.6,59.6A4.294,4.294,0,1,1,43.9,55.31,4.294,4.294,0,0,1,39.6,59.6Z" transform="translate(-3.114 -2.926)" fill="none" stroke="#242324" stroke-linecap="round" stroke-linejoin="round" stroke-width="0.8"/>
</svg>
