<svg xmlns="http://www.w3.org/2000/svg" width="94.07" height="105.607" viewBox="0 0 94.07 105.607">
  <path id="_006" data-name="006" d="M84.95,24.117c8.025-.528,14.02,1.224,16.477,5.479,5.734,9.932-9.983,29.741-35.1,44.245C51.963,82.131,37.639,86.893,26.93,87.6M84.95,24.117a2.494,2.494,0,1,1-2.494-2.494A2.494,2.494,0,0,1,84.95,24.117Zm-4.917.593c-9.967,1.615-22.244,6.1-34.476,13.164-25.121,14.5-40.838,34.313-35.1,44.245,1.916,3.318,5.984,5.114,11.489,5.493m4.988-63.5c10.709.7,25.033,5.467,39.392,13.757,25.121,14.5,40.839,34.313,35.1,44.245C98.97,86.373,92.976,88.125,84.95,87.6M26.93,24.117a2.494,2.494,0,1,1-2.494-2.494A2.494,2.494,0,0,1,26.93,24.117ZM21.943,24.1c-5.505.379-9.573,2.175-11.489,5.494-5.734,9.932,9.982,29.741,35.1,44.245,12.252,7.074,24.494,11.58,34.47,13.188m4.922.57A2.494,2.494,0,1,1,82.456,85.1,2.494,2.494,0,0,1,84.95,87.6Zm-58.02-.033a2.494,2.494,0,1,1-2.494-2.494A2.494,2.494,0,0,1,26.93,87.565ZM76.705,55.857c0,29.008-9.3,52.524-20.765,52.524S35.175,84.865,35.175,55.857,44.472,3.334,55.94,3.334,76.705,26.85,76.705,55.857Zm-7.634,0A13.131,13.131,0,1,1,55.94,42.726,13.131,13.131,0,0,1,69.071,55.857Z" transform="translate(-8.905 -3.054)" fill="none" stroke="#272727" stroke-linecap="round" stroke-linejoin="round" stroke-width="0.56"/>
</svg>
