<svg xmlns="http://www.w3.org/2000/svg" width="98.085" height="98.085" viewBox="0 0 98.085 98.085">
  <g id="_005" data-name="005" transform="translate(-9.458 -9.46)">
    <path id="Path_340" data-name="Path 340" d="M107.25,58.5A48.75,48.75,0,1,1,58.5,9.753,48.75,48.75,0,0,1,107.25,58.5Z" fill="none" stroke="#272727" stroke-linecap="round" stroke-linejoin="round" stroke-width="0.585"/>
    <path id="Path_341" data-name="Path 341" d="M76.493,31.829c22.321,15.056,32.359,39.2,22.423,53.935s-36.087,14.469-58.408-.588S8.148,45.973,18.085,31.241,54.172,16.773,76.493,31.829Z" fill="none" stroke="#272727" stroke-linecap="round" stroke-linejoin="round" stroke-width="0.585"/>
    <path id="Path_342" data-name="Path 342" d="M65.188,53.418C81.482,74.852,91.7,94.5,88,97.312s-19.9-12.291-36.192-33.724S25.3,22.5,29,19.694,48.895,31.985,65.188,53.418Z" fill="none" stroke="#272727" stroke-linecap="round" stroke-linejoin="round" stroke-width="0.585"/>
    <path id="Path_343" data-name="Path 343" d="M78.494,55.775c3.64,26.677-2.36,49.524-13.4,51.03s-22.945-18.9-26.585-45.574,2.36-49.524,13.4-51.031S74.854,29.1,78.494,55.775Z" fill="none" stroke="#272727" stroke-linecap="round" stroke-linejoin="round" stroke-width="0.585"/>
    <path id="Path_344" data-name="Path 344" d="M55.177,46.644c25.957-7.15,48.457-7.658,50.253-1.135S87.641,63.115,61.684,70.265,13.227,77.923,11.431,71.4,29.22,53.793,55.177,46.644Z" fill="none" stroke="#272727" stroke-linecap="round" stroke-linejoin="round" stroke-width="0.585"/>
    <path id="Path_345" data-name="Path 345" d="M66.59,67.681c-20.2,17.8-40.193,28.126-44.661,23.058s8.284-23.61,28.481-41.413S90.6,21.2,95.071,26.267,86.788,49.878,66.59,67.681Z" fill="none" stroke="#272727" stroke-linecap="round" stroke-linejoin="round" stroke-width="0.585"/>
  </g>
</svg>
