<svg xmlns="http://www.w3.org/2000/svg" width="68.515" height="59.995" viewBox="0 0 68.515 59.995">
  <g id="real-estate-website" transform="translate(-84 -135.73)">
    <path id="Path_144" data-name="Path 144" d="M151.2,193.284H85.318a1.318,1.318,0,1,1,0-2.635H151.2a1.318,1.318,0,0,1,0,2.635Zm-21.683-4.178h-.544a1.318,1.318,0,0,1,0-2.635h.544a1.318,1.318,0,1,1,0,2.635Zm6.59,0h-.545a1.318,1.318,0,0,1,0-2.635h.545a1.318,1.318,0,1,1,0,2.635Zm6.589,0h-.545a1.318,1.318,0,0,1,0-2.635h.545a1.318,1.318,0,0,1,0,2.635Zm2.191,12.525H127.938a1.318,1.318,0,1,1,0-2.635h16.947a1.318,1.318,0,1,1,0,2.635Zm0,6.725H127.938a1.318,1.318,0,1,1,0-2.635h16.947a1.318,1.318,0,1,1,0,2.635Zm0,6.725H127.938a1.318,1.318,0,0,1,0-2.635h16.947a1.318,1.318,0,0,1,0,2.635Zm0,6.726H127.938a1.318,1.318,0,1,1,0-2.635h16.947a1.318,1.318,0,1,1,0,2.635Zm-21.992-10.641a1.308,1.308,0,0,1-.857-.318l-14.774-12.682L92.489,210.846a1.318,1.318,0,1,1-1.717-2L106.4,195.424a1.318,1.318,0,0,1,1.717,0l15.631,13.423a1.318,1.318,0,0,1-.859,2.316Z" transform="translate(0 -46.562)" fill="#282728"/>
    <path id="Path_145" data-name="Path 145" d="M218.667,447.516H192.418A1.318,1.318,0,0,1,191.1,446.2V429.518a1.318,1.318,0,1,1,2.635,0v15.363h24.931a1.318,1.318,0,1,1,0,2.635Z" transform="translate(-98.28 -268.385)" fill="#282728"/>
    <path id="Path_146" data-name="Path 146" d="M317.3,447.516a1.318,1.318,0,0,1-1.318-1.318V429.518a1.318,1.318,0,1,1,2.635,0V446.2A1.318,1.318,0,0,1,317.3,447.516Zm-8.851,0a1.318,1.318,0,0,1-1.318-1.318V435.492h-5.912V446.2a1.318,1.318,0,0,1-2.635,0V434.174a1.318,1.318,0,0,1,1.318-1.318h8.547a1.318,1.318,0,0,1,1.318,1.318V446.2A1.318,1.318,0,0,1,308.445,447.515Z" transform="translate(-196.909 -268.385)" fill="#282728"/>
    <path id="Path_147" data-name="Path 147" d="M326.8,308.079a1.318,1.318,0,0,1-1.318-1.318v-7.706h-1.318v4.315a1.318,1.318,0,0,1-2.635,0v-5.633a1.318,1.318,0,0,1,1.318-1.318H326.8a1.318,1.318,0,0,1,1.318,1.318v9.024A1.318,1.318,0,0,1,326.8,308.079Zm-11,2.948a4.453,4.453,0,1,1,4.547-4.452A4.505,4.505,0,0,1,315.807,311.027Zm0-6.268a1.819,1.819,0,1,0,1.911,1.817A1.868,1.868,0,0,0,315.807,304.759Z" transform="translate(-208.545 -147.457)" fill="#282728"/>
    <path id="Path_148" data-name="Path 148" d="M145.469,182.97H91.046A7.053,7.053,0,0,1,84,175.924V142.776a7.053,7.053,0,0,1,7.046-7.046h54.423a7.053,7.053,0,0,1,7.046,7.046v33.148A7.053,7.053,0,0,1,145.469,182.97Zm-54.423-44.6a4.416,4.416,0,0,0-4.411,4.411v33.148a4.416,4.416,0,0,0,4.411,4.411h54.423a4.416,4.416,0,0,0,4.411-4.411V142.776a4.416,4.416,0,0,0-4.411-4.411Zm40.1,57.36H105.368a2.388,2.388,0,0,1-2.382-2.382V190.1a2.388,2.388,0,0,1,2.382-2.382h25.775a2.388,2.388,0,0,1,2.382,2.382v3.238A2.388,2.388,0,0,1,131.144,195.725Zm-25.519-2.635H130.89v-2.731H105.625Z" transform="translate(0)" fill="#282728"/>
    <path id="Path_149" data-name="Path 149" d="M370.511,687.4a1.328,1.328,0,0,1-.476-.089,11.776,11.776,0,0,1-7.227-8.32,1.318,1.318,0,0,1,2.567-.6,9.141,9.141,0,0,0,5.611,6.459,1.318,1.318,0,0,1-.475,2.546Zm-22.636,0a1.318,1.318,0,0,1-.476-2.546,9.141,9.141,0,0,0,5.612-6.459,1.318,1.318,0,0,1,2.567.6,11.77,11.77,0,0,1-7.228,8.317A1.318,1.318,0,0,1,347.875,687.4Z" transform="translate(-240.935 -497.042)" fill="#282728"/>
  </g>
</svg>
