<svg xmlns="http://www.w3.org/2000/svg" width="86.085" height="89.34" viewBox="0 0 86.085 89.34">
  <g id="report" transform="translate(-10.081 -8)">
    <path id="Path_285" data-name="Path 285" d="M89.433,97.34H46.757V94.149H89.433a7.986,7.986,0,0,0,7.977-7.977V30.16a3.977,3.977,0,0,0-1.061-2.709l-4.071-4.4L81.4,12.338a3.965,3.965,0,0,0-2.8-1.147H43.167a7.986,7.986,0,0,0-7.977,7.977V58.254H32V19.167A11.167,11.167,0,0,1,43.167,8H78.6a7.138,7.138,0,0,1,5.039,2.065l10.954,10.8,4.1,4.423A7.158,7.158,0,0,1,100.6,30.16V86.172A11.168,11.168,0,0,1,89.433,97.34Z" transform="translate(-4.435)" fill="#fff"/>
    <path id="Path_286" data-name="Path 286" d="M110.74,32.74H98.774A8.774,8.774,0,0,1,90,23.965V12h3.191V23.965a5.59,5.59,0,0,0,5.584,5.584H110.74Z" transform="translate(-16.169 -0.809)" fill="#fff"/>
    <path id="Path_287" data-name="Path 287" d="M95.6,107.381a1.6,1.6,0,0,1-1.6-1.6V102.6a1.6,1.6,0,0,1,3.191,0v3.191A1.6,1.6,0,0,1,95.6,107.381Z" transform="translate(-16.979 -18.816)" fill="#fff"/>
    <path id="Path_288" data-name="Path 288" d="M81.364,69.5l7.966,6.384H99.538v1.6a10.769,10.769,0,1,1-19.172-6.734Zm14.813,9.575H88.209l-6.217-4.983a7.578,7.578,0,1,0,14.185,4.983Z" transform="translate(-13.742 -12.442)" fill="#fff"/>
    <path id="Path_289" data-name="Path 289" d="M75.027,68a8.751,8.751,0,0,1,3.167.568c1.852.74,2.128,1.875,2.128,2.486a2.235,2.235,0,0,1-1.068,1.869,5.366,5.366,0,0,1-1.745.716,26.769,26.769,0,0,1-6.053.521c-.768,0-1.6-.015-2.466-.045l-3.125-.108,1.921-2.467a9.255,9.255,0,0,1,3.145-2.578A9.082,9.082,0,0,1,75.027,68Zm-53.662.8H36.956A2.393,2.393,0,0,1,39.3,71.674l-1.435,6.959a35.22,35.22,0,0,1,10.32,21.118,8.736,8.736,0,0,1-8.68,9.728H18.817a8.736,8.736,0,0,1-8.68-9.728,35.22,35.22,0,0,1,10.32-21.118l-1.435-6.959A2.393,2.393,0,0,1,21.365,68.8Zm14.612,3.191H22.344l.987,4.786H34.99Zm-1.338,7.977H23.682l-.624.592a32.02,32.02,0,0,0-9.751,19.557,5.546,5.546,0,0,0,5.51,6.175H39.5a5.546,5.546,0,0,0,5.51-6.175,32.02,32.02,0,0,0-9.751-19.556Z" transform="translate(0 -12.139)" fill="#fff"/>
    <path id="Path_290" data-name="Path 290" d="M37.2,92.525h0l.005,0a1.012,1.012,0,0,0,.377-.779,1.075,1.075,0,0,0-.5-.883,6.441,6.441,0,0,0-3.613-1.231v-.773a1.013,1.013,0,0,0-.26-.749,1.246,1.246,0,0,0-1.513,0,1.013,1.013,0,0,0-.26.749v.812a5.956,5.956,0,0,0-3.094,1.194h0a3.162,3.162,0,0,0-1.163,2.519,2.585,2.585,0,0,0,.667,1.82A4.5,4.5,0,0,0,29.5,96.314a10.652,10.652,0,0,0,1.942.578v3.853a4.539,4.539,0,0,1-2.255-1.112.837.837,0,0,0-.462-.3,1.312,1.312,0,0,0-.524-.1,1.382,1.382,0,0,0-.936.356.981.981,0,0,0-.417.781,1.209,1.209,0,0,0,.288.763h0l0,0a4.68,4.68,0,0,0,1.877,1.28h0a10.091,10.091,0,0,0,2.424.554v1.663a1.013,1.013,0,0,0,.26.749,1.245,1.245,0,0,0,1.513,0,1.013,1.013,0,0,0,.26-.749V103a6.3,6.3,0,0,0,3.39-1.2h0a3.354,3.354,0,0,0,1.391-2.751,2.933,2.933,0,0,0-.858-2.217,5.09,5.09,0,0,0-1.948-1.208,14.723,14.723,0,0,0-1.975-.575V91.778a4.2,4.2,0,0,1,1.976.782l.006,0,.007,0a1.791,1.791,0,0,0,.88.245A1.357,1.357,0,0,0,37.2,92.525ZM35,100.242h0l0,0a3.042,3.042,0,0,1-1.522.612V97.273a5.07,5.07,0,0,1,1.5.606h0l0,0a1.25,1.25,0,0,1,.652,1.144A1.484,1.484,0,0,1,35,100.242Zm-5.185-6.893a1.251,1.251,0,0,1,.426-.993,2.5,2.5,0,0,1,1.2-.505v2.786a4.8,4.8,0,0,1-1.2-.47A.927.927,0,0,1,29.816,93.349Z" transform="translate(-3.393 -16.155)" fill="#fff"/>
    <path id="Path_290_-_Outline" data-name="Path 290 - Outline" d="M32.43,87.7a1.151,1.151,0,0,1,.841.291,1.126,1.126,0,0,1,.3.834v.662a6.518,6.518,0,0,1,3.567,1.248,1.184,1.184,0,0,1,.542.977,1.126,1.126,0,0,1-.418.869l-.122.107-.007-.014a1.487,1.487,0,0,1-.813.229,1.916,1.916,0,0,1-.938-.26l-.025-.016a4.078,4.078,0,0,0-1.785-.739v3.042a15.077,15.077,0,0,1,1.9.559,5.228,5.228,0,0,1,1.992,1.236,3.055,3.055,0,0,1,.892,2.3,3.478,3.478,0,0,1-1.437,2.845l-.033.025a6.407,6.407,0,0,1-3.311,1.186v1.52a1.126,1.126,0,0,1-.3.834,1.361,1.361,0,0,1-1.681,0,1.126,1.126,0,0,1-.3-.834v-1.556a10.206,10.206,0,0,1-2.342-.547l-.009,0a4.817,4.817,0,0,1-1.924-1.314l0,0a1.329,1.329,0,0,1-.315-.84,1.091,1.091,0,0,1,.459-.873,1.5,1.5,0,0,1,1.012-.384,1.438,1.438,0,0,1,.564.111.954.954,0,0,1,.512.33,4.344,4.344,0,0,0,2.046,1.041v-3.6a10.813,10.813,0,0,1-1.867-.565,4.642,4.642,0,0,1-1.692-1.142,2.709,2.709,0,0,1-.7-1.9,3.286,3.286,0,0,1,1.2-2.61,6.029,6.029,0,0,1,3.053-1.209v-.708a1.126,1.126,0,0,1,.3-.834A1.15,1.15,0,0,1,32.43,87.7ZM37.1,92.4h0a.9.9,0,0,0,.336-.689.96.96,0,0,0-.447-.786,6.354,6.354,0,0,0-3.55-1.208l-.111-.008v-.885a.9.9,0,0,0-.224-.664,1.131,1.131,0,0,0-1.345,0,.9.9,0,0,0-.224.664v.918l-.1.013A5.864,5.864,0,0,0,28.4,90.924h0a3.056,3.056,0,0,0-1.119,2.426,2.477,2.477,0,0,0,.635,1.738,4.405,4.405,0,0,0,1.606,1.082,10.581,10.581,0,0,0,1.92.572l.1.019v4.1l-.146-.033a4.678,4.678,0,0,1-2.313-1.144l-.01-.012a.722.722,0,0,0-.4-.254l-.017-.006a1.2,1.2,0,0,0-.477-.095,1.268,1.268,0,0,0-.857.326l0,0a.865.865,0,0,0-.371.687,1.094,1.094,0,0,0,.261.689l0,0a4.577,4.577,0,0,0,1.824,1.242h0a10.018,10.018,0,0,0,2.4.547l.107.011V104.6a.9.9,0,0,0,.224.664,1.131,1.131,0,0,0,1.345,0,.9.9,0,0,0,.224-.664v-1.738l.109-.01a6.212,6.212,0,0,0,3.327-1.172l.018-.014a3.245,3.245,0,0,0,1.327-2.643,2.826,2.826,0,0,0-.821-2.131,5,5,0,0,0-1.905-1.182,14.679,14.679,0,0,0-1.96-.571l-.095-.02V91.611l.135.018a4.343,4.343,0,0,1,2.031.8h0a1.68,1.68,0,0,0,.822.23A1.243,1.243,0,0,0,37.1,92.4Zm-5.565-.724v3.087l-.151-.041a4.94,4.94,0,0,1-1.228-.483l-.005,0a1.051,1.051,0,0,1-.483-.917,1.377,1.377,0,0,1,.467-1.082,2.623,2.623,0,0,1,1.259-.533Zm-.239,2.772V91.967a2.25,2.25,0,0,0-1,.449,1.132,1.132,0,0,0-.385.9.8.8,0,0,0,.376.717A4.4,4.4,0,0,0,31.294,94.448Zm2.032,2.641.148.037a5.212,5.212,0,0,1,1.532.621l0,0a1.372,1.372,0,0,1,.706,1.244,1.61,1.61,0,0,1-.672,1.312l-.006,0a3.181,3.181,0,0,1-1.575.633l-.137.02Zm1.576,3.024a1.362,1.362,0,0,0,.575-1.12,1.134,1.134,0,0,0-.593-1.041l0,0a4.816,4.816,0,0,0-1.313-.552v3.287a2.843,2.843,0,0,0,1.326-.563Z" transform="translate(-3.362 -16.125)" fill="#fff"/>
    <path id="Path_291" data-name="Path 291" d="M94.242,59.191H41.6A1.6,1.6,0,0,1,41.6,56H94.242a1.6,1.6,0,0,1,0,3.191Z" transform="translate(-6.053 -9.711)" fill="#fff"/>
    <path id="Path_292" data-name="Path 292" d="M58.358,23a3.993,3.993,0,0,1,3.988,3.988V52.514H54.37V26.988A3.993,3.993,0,0,1,58.358,23Zm.8,26.323V26.988a.8.8,0,0,0-1.6,0V49.323ZM47.988,30.977a3.993,3.993,0,0,1,3.988,3.988V52.514H44V34.965A3.993,3.993,0,0,1,47.988,30.977Zm.8,18.347V34.965a.8.8,0,0,0-1.6,0V49.323ZM68.728,32.572a3.993,3.993,0,0,1,3.988,3.988V52.514H64.74V36.561A3.993,3.993,0,0,1,68.728,32.572Zm.8,16.751V36.561a.8.8,0,1,0-1.6,0V49.323ZM79.1,34.965a3.993,3.993,0,0,1,3.988,3.988V52.514H75.109V38.954A3.993,3.993,0,0,1,79.1,34.965Zm.8,14.358V38.954a.8.8,0,0,0-1.6,0v10.37Zm9.572-11.167a3.993,3.993,0,0,1,3.988,3.988v10.37H85.479V42.144A3.993,3.993,0,0,1,89.468,38.156Zm.8,11.167V42.144a.8.8,0,0,0-1.6,0v7.179Zm-17.549,35.1H91.063a3.988,3.988,0,1,1,0,7.977H72.716a3.988,3.988,0,1,1,0-7.977Zm18.347,4.786a.8.8,0,1,0,0-1.6H72.716a.8.8,0,0,0,0,1.6Z" transform="translate(-6.863 -3.035)" fill="#fff"/>
  </g>
</svg>
