<svg xmlns="http://www.w3.org/2000/svg" width="59.638" height="60" viewBox="0 0 59.638 60">
  <path id="saving" d="M60.564,36.239c-.566-.945-2.892-3.752-9.042-.17L40.639,42.407a6,6,0,0,1-1.751.688,4.23,4.23,0,0,0,.528-1.208,4.1,4.1,0,0,0-2.791-4.9.978.978,0,0,0-.123-.031,54.534,54.534,0,0,1-8.7-2.578c-.862-.312-1.676-.606-2.368-.83-2.778-.9-5.289.216-7.379,1.426l-8.12,4.7-.6-1.059a2.544,2.544,0,0,0-3.461-.959L2.823,39.388a2.543,2.543,0,0,0-.959,3.461l8.977,15.862a2.521,2.521,0,0,0,1.533,1.195,2.561,2.561,0,0,0,.685.094A2.518,2.518,0,0,0,14.3,59.67l3.053-1.728a2.544,2.544,0,0,0,.959-3.461L17.2,52.5l1.88-1.085,13.95,3.738a8.9,8.9,0,0,0,2.308.315,8.072,8.072,0,0,0,4.29-1.249l19.75-12.161a4.414,4.414,0,0,0,1.189-5.822Zm-43.82,19.67a.66.66,0,0,1-.311.4l-3.053,1.728a.67.67,0,0,1-.906-.251L3.5,41.926a.666.666,0,0,1,.251-.906L6.8,39.291a.656.656,0,0,1,.323-.085.68.68,0,0,1,.182.025.659.659,0,0,1,.4.311L16.683,55.4a.659.659,0,0,1,.06.5ZM58.392,40.465,38.642,52.626a6.319,6.319,0,0,1-5.131.72L19.186,49.507a.936.936,0,0,0-.711.094l-2.2,1.271L10.861,41.31,19,36.6c1.82-1.054,3.789-1.937,5.86-1.265.662.215,1.425.491,2.309.81A56.373,56.373,0,0,0,36.1,38.788a2.191,2.191,0,0,1,1.5,2.614,2.031,2.031,0,0,1-2.328,1.534c-1.784-.347-3.388-.8-5.07-1.279-.723-.2-1.47-.417-2.256-.628a.937.937,0,1,0-.485,1.811c.773.207,1.513.417,2.23.62,1.6.454,3.131.888,4.827,1.237a.936.936,0,0,0,.271.076q.117.015.232.024.541.1,1.085.191a7.964,7.964,0,0,0,5.471-.961l10.883-6.339c3.148-1.833,5.574-2.015,6.489-.486a2.573,2.573,0,0,1-.563,3.262Zm-50.871,1.6a1.09,1.09,0,1,1-1.236-.921A1.09,1.09,0,0,1,7.521,42.063ZM27.024,18a.938.938,0,1,1,1.819-.454A2.474,2.474,0,0,0,31.471,19.2a2.983,2.983,0,0,0,2.1-.78,1.1,1.1,0,0,0,.254-.913c-.075-.614-.439-1.365-2.613-1.722-3.08-.506-3.8-2.1-3.859-3.349a3.554,3.554,0,0,1,2.986-3.6l.078-.016v-.67a.937.937,0,0,1,1.875,0v.662A4.09,4.09,0,0,1,35.358,11.3a.937.937,0,1,1-1.729.726,2.425,2.425,0,0,0-2.876-1.356,1.72,1.72,0,0,0-1.528,1.679c.016.335.059,1.224,2.29,1.59,2.549.418,3.952,1.544,4.171,3.347a2.972,2.972,0,0,1-.7,2.365,4.462,4.462,0,0,1-2.7,1.359v.64a.937.937,0,0,1-1.875,0v-.655a4.113,4.113,0,0,1-3.393-3Zm4.33,8.505a11.6,11.6,0,1,0-11.6-11.6,11.614,11.614,0,0,0,11.6,11.6Zm0-21.326A9.725,9.725,0,1,1,21.629,14.9a9.736,9.736,0,0,1,9.725-9.725Zm0,24.627a14.9,14.9,0,1,0-14.9-14.9,14.918,14.918,0,0,0,14.9,14.9Zm0-27.928A13.026,13.026,0,1,1,18.328,14.9,13.041,13.041,0,0,1,31.354,1.875Z" transform="translate(-1.535)" fill="#282728"/>
</svg>
