<svg xmlns="http://www.w3.org/2000/svg" width="89.34" height="84.507" viewBox="0 0 89.34 84.507">
  <g id="seo" transform="translate(-1.998 -3.621)">
    <path id="Path_293" data-name="Path 293" d="M28.8,68.233a26.656,26.656,0,0,0,12.478-3.077l6.856,11.777c3.6,6.614,13.391,7.854,18.569,2.4,5.466-5.174,4.2-14.959-2.4-18.569L52.5,53.893a26.96,26.96,0,0,0,1.646-21.2,1.493,1.493,0,0,0-2.931.383c5.53,15.454-5.819,32.292-22.408,32.175C16,65.519,4.716,54.234,4.981,41.432c-.246-16.269,16.75-28.109,31.951-22.393a1.489,1.489,0,0,0,1.015-2.8C20.851,9.81,1.724,23.13,2,41.432c-.3,14.4,12.4,27.1,26.8,26.8Zm18.949-7.852a26.412,26.412,0,0,0,3.219-3.93L62.8,63.34A8.842,8.842,0,1,1,50.711,75.434L43.832,63.618a27.087,27.087,0,0,0,3.921-3.237Z" transform="translate(0 5.367)" fill="#fff"/>
    <path id="Path_294" data-name="Path 294" d="M33.476,24.223a1.489,1.489,0,0,0,1.3-2.681,19.4,19.4,0,0,0-22.115,3.743C.5,37.421,9.33,58.449,26.351,58.322,41.8,58.492,51.312,40.48,42.156,27.8a1.489,1.489,0,0,0-2.428,1.723A16.385,16.385,0,0,1,14.764,50.568C2,37.306,16.782,16.512,33.476,24.223Z" transform="translate(2.452 7.822)" fill="#fff"/>
    <path id="Path_295" data-name="Path 295" d="M19.529,44.025a1.489,1.489,0,0,0,2.1-.176L34.293,28.878a5.872,5.872,0,0,0,6.339-.769l8.351,6.072a4.452,4.452,0,1,0,8.209-.786L72.6,16.888v5.155a1.489,1.489,0,0,0,2.978,0V13.11a1.546,1.546,0,0,0-1.489-1.489H65.158a1.489,1.489,0,0,0,0,2.978h5.506L55.025,31.351a4.472,4.472,0,0,0-4.3.413L42.4,25.713a5.973,5.973,0,0,0-5.529-8.136c-4.711-.145-7.675,5.668-4.854,9.383L19.354,41.927a1.489,1.489,0,0,0,.175,2.1Zm33.718-10.07a1.489,1.489,0,0,1,0,2.978A1.489,1.489,0,0,1,53.247,33.955Zm-16.378-13.4a2.974,2.974,0,1,1-2.978,2.978A2.99,2.99,0,0,1,36.869,20.555Z" transform="translate(8.313 3.911)" fill="#fff"/>
    <path id="Path_296" data-name="Path 296" d="M77.025,3.621H21.935A8.943,8.943,0,0,0,13,12.555v5.866a1.489,1.489,0,0,0,2.978,0V12.555A5.962,5.962,0,0,1,21.935,6.6h55.09a5.962,5.962,0,0,1,5.956,5.956V57.222a5.962,5.962,0,0,1-5.956,5.956H62.047a1.489,1.489,0,0,0,0,2.978H77.025a8.943,8.943,0,0,0,8.933-8.933V12.555a8.943,8.943,0,0,0-8.933-8.933Z" transform="translate(5.38 0)" fill="#fff"/>
    <path id="Path_297" data-name="Path 297" d="M60.173,53.289a1.489,1.489,0,0,0,0,2.978H76.551a1.489,1.489,0,0,0,0-2.978H60.173Zm16.378-5.956H67.618a1.489,1.489,0,0,0,0,2.978h8.933A1.489,1.489,0,0,0,76.551,47.333ZM30.395,11.6a1.489,1.489,0,0,0,0-2.978H18.484a1.489,1.489,0,0,0,0,2.978Z" transform="translate(7.342 2.445)" fill="#fff"/>
  </g>
</svg>
