<svg xmlns="http://www.w3.org/2000/svg" width="60.536" height="60" viewBox="0 0 60.536 60">
  <path id="service" d="M55.279,55.989a3.953,3.953,0,0,1-.11.561h0c-.009.034-.028.094-.055.178a4.113,4.113,0,0,1-1.047,1.684,9.29,9.29,0,0,0,5.274-1.022l8.351-4.458a1.342,1.342,0,0,0-.192-.441,1.5,1.5,0,0,0-.951-.62,2.76,2.76,0,0,0-1.612.178l0,0-9.654,3.943h0ZM28.662,54.672l8.077-4.066a3.081,3.081,0,0,1,1.1-.325,3.3,3.3,0,0,1,1.18.115l12.436,3.375.1.028a2.022,2.022,0,0,1,1.137.883,1.61,1.61,0,0,1,.174,1.245v0l-.019.07a1.872,1.872,0,0,1-.974,1.077,2.4,2.4,0,0,1-1.615.186q-.051-.016-.1-.028L43.82,55.573a1.19,1.19,0,0,0-.606,2.3l6.321,1.659.53.2c2.813,1.058,5.481,2.062,10.306-.2l.056-.028,8.933-4.769a1.212,1.212,0,0,0,.148-.079l2.043-1.091a1.943,1.943,0,0,1,1.369-.163,1.7,1.7,0,0,1,1.047.716l.026.041a1.237,1.237,0,0,1,.12.989,1.686,1.686,0,0,1-.736.929l-.06.038L54.9,66.938a3.15,3.15,0,0,1-1.229.42,3.271,3.271,0,0,1-1.319-.121l-5.293-1.563-.525-.158c-2.559-.767-4.148-1.244-6.733.229l-3.31,1.885L28.662,54.672h0Zm-.314,22.89L16.185,57.437A1.191,1.191,0,0,1,16.59,55.8l8.324-5.031a1.191,1.191,0,0,1,1.635.405l.878,1.453,8.24-4.148a5.448,5.448,0,0,1,1.945-.567,5.643,5.643,0,0,1,2.028.18l12.436,3.375c.025.007.093.028.207.065a4.4,4.4,0,0,1,2.46,1.945q.039.066.075.133l9.222-3.766v0a5.138,5.138,0,0,1,3.019-.29,3.846,3.846,0,0,1,2.423,1.626,3.746,3.746,0,0,1,.333.62l.619-.33a4.321,4.321,0,0,1,3.047-.377,4.081,4.081,0,0,1,2.5,1.759l.064.107a3.58,3.58,0,0,1,.353,2.862,4.072,4.072,0,0,1-1.751,2.271l-.125.075L56.1,68.988a5.515,5.515,0,0,1-2.151.736,5.621,5.621,0,0,1-2.27-.2L45.856,67.8c-1.961-.588-3.179-.953-4.879.015l-3.253,1.853.988,1.635a1.191,1.191,0,0,1-.405,1.635l-8.324,5.031a1.191,1.191,0,0,1-1.635-.405h0ZM18.841,57.225,29.772,75.311l6.285-3.8L25.126,53.427l-6.285,3.8h0ZM57.2,20.523H54.278l-.66,2.058h0a1.187,1.187,0,0,1-.819.783,10.945,10.945,0,0,0-2.576,1.071v0a1.189,1.189,0,0,1-1.136.025l-1.922-.988L45.1,25.532l.958,1.862a1.191,1.191,0,0,1,.008,1.2,10.94,10.94,0,0,0-1.058,2.527,1.188,1.188,0,0,1-.8.869l-2.058.66v2.918l2.058.66h0a1.187,1.187,0,0,1,.783.819,10.934,10.934,0,0,0,1.071,2.576h0a1.189,1.189,0,0,1,.025,1.136L45.1,42.678l2.062,2.062,1.862-.958a1.191,1.191,0,0,1,1.2-.008,10.944,10.944,0,0,0,2.527,1.058,1.188,1.188,0,0,1,.869.8l.66,2.058H57.2l.66-2.058h0a1.187,1.187,0,0,1,.819-.783,10.934,10.934,0,0,0,2.576-1.071v0a1.189,1.189,0,0,1,1.136-.025l1.922.988,2.062-2.062-.958-1.862a1.191,1.191,0,0,1-.008-1.2,10.94,10.94,0,0,0,1.058-2.527,1.188,1.188,0,0,1,.8-.869l2.058-.66V32.646l-2.058-.66h0a1.187,1.187,0,0,1-.783-.819,10.942,10.942,0,0,0-1.071-2.576h0a1.189,1.189,0,0,1-.025-1.136l.988-1.922L64.31,23.47l-1.862.958a1.191,1.191,0,0,1-1.2.008,11.094,11.094,0,0,0-1.2-.594L60,23.819a11.073,11.073,0,0,0-1.272-.441,1.189,1.189,0,0,1-.869-.8l-.66-2.058h0Zm-3.784-2.385v0a1.189,1.189,0,0,0-1.132.826l-.735,2.293q-.5.163-.976.36-.493.2-.952.436l-2.064-1.062a1.193,1.193,0,0,0-1.462.176L42.8,24.459l0,0a1.19,1.19,0,0,0-.216,1.386l1.1,2.138q-.232.458-.436.952-.2.476-.36.976l-2.2.705a1.193,1.193,0,0,0-.922,1.162v4.65h0a1.19,1.19,0,0,0,.826,1.132l2.293.735q.163.5.36.976.2.493.436.952L42.627,42.29a1.193,1.193,0,0,0,.176,1.462l3.288,3.288,0,0a1.19,1.19,0,0,0,1.386.216l2.138-1.1q.458.232.952.437.475.2.976.36l.705,2.2a1.193,1.193,0,0,0,1.162.922h4.65v0a1.189,1.189,0,0,0,1.132-.826l.735-2.293q.5-.163.976-.36.493-.2.952-.436l2.064,1.062a1.193,1.193,0,0,0,1.462-.176l3.288-3.288,0,0a1.19,1.19,0,0,0,.216-1.386l-1.1-2.138q.232-.458.436-.952.2-.476.36-.976l2.2-.705a1.193,1.193,0,0,0,.922-1.162V31.78h0a1.19,1.19,0,0,0-.826-1.132l-2.293-.735q-.163-.5-.36-.976-.2-.493-.436-.952l1.062-2.064a1.193,1.193,0,0,0-.176-1.462l-3.288-3.288,0,0A1.19,1.19,0,0,0,64,20.956l-2.138,1.1q-.428-.216-.886-.409l-.061-.027q-.473-.2-.981-.36l-.705-2.2a1.193,1.193,0,0,0-1.162-.922h-4.65Zm5.762,12.53a4.861,4.861,0,1,1-3.437-1.424,4.846,4.846,0,0,1,3.437,1.424Zm-3.437-3.809a7.247,7.247,0,1,1-5.124,2.123A7.223,7.223,0,0,1,55.737,26.859Z" transform="translate(-16.014 -18.138)" fill="#fff" fill-rule="evenodd"/>
</svg>
