<svg xmlns="http://www.w3.org/2000/svg" width="201" height="201" viewBox="0 0 201 201">
  <path id="_0001" data-name="0001" d="M101,.5l.007,40.98c0,11.634,16.441,14.488,20.484,3.557L135.73,6.531,121.5,45.042c-4.038,10.932,10.418,19.152,18.013,10.242L166.27,23.9l-26.742,31.4c-7.592,8.913,3.138,21.506,13.37,15.691L188.939,50.5,152.9,71c-10.229,5.818-4.52,21.266,7.114,19.248L201,83.135l-40.979,7.123c-11.633,2.022-11.633,18.462,0,20.484L201,117.865l-40.981-7.109c-11.634-2.018-17.343,13.429-7.114,19.248l36.034,20.5L152.9,130.016c-10.232-5.815-20.962,6.778-13.37,15.691l26.742,31.4-26.753-31.388c-7.6-8.91-22.051-.69-18.013,10.242l14.226,38.511-14.239-38.506c-4.043-10.931-20.482-8.077-20.484,3.557L101,200.5l-.007-40.98c0-11.634-16.441-14.488-20.484-3.557L66.27,194.469,80.5,155.958c4.038-10.932-10.418-19.152-18.013-10.242L35.73,177.1l26.742-31.4c7.592-8.913-3.138-21.506-13.37-15.691L13.061,150.5,49.1,130c10.229-5.819,4.52-21.266-7.114-19.248L1,117.865l40.979-7.123c11.633-2.022,11.633-18.462,0-20.484L1,83.135l40.981,7.109C53.615,92.262,59.324,76.815,49.1,71L13.061,50.5,49.1,70.984C59.334,76.8,70.064,64.206,62.472,55.293L35.73,23.9,62.483,55.284c7.595,8.91,22.051.691,18.013-10.242L66.27,6.531,80.509,45.037c4.042,10.931,20.482,8.077,20.484-3.557Z" transform="translate(-0.5)" fill="none" stroke="#fff" stroke-linecap="round" stroke-linejoin="round" stroke-width="1"/>
</svg>
