<svg xmlns="http://www.w3.org/2000/svg" width="59.996" height="59.997" viewBox="0 0 59.996 59.997">
  <g id="solution" transform="translate(-1 -1)">
    <path id="Path_152" data-name="Path 152" d="M11.292,28.717A11.52,11.52,0,0,0,5.237,49.1a3.091,3.091,0,0,1,1.086,2.418v4.64a5.427,5.427,0,0,0,5.449,5.391h1.682A5.427,5.427,0,0,0,18.9,56.155v-4.64a3.2,3.2,0,0,1,1.15-2.471,11.49,11.49,0,0,0,.332-17.433,11.71,11.71,0,0,0-9.091-2.893ZM8.258,56.156V55.74h8.709v.415a3.367,3.367,0,0,1-.057.553H8.316a3.368,3.368,0,0,1-.057-.553Zm3.514,3.455a3.526,3.526,0,0,1-2.427-.968H15.88a3.526,3.526,0,0,1-2.427.968Zm7.322-26.557a9.555,9.555,0,0,1-.278,14.5,5.129,5.129,0,0,0-1.848,3.96V53.8H13.58V48a.97.97,0,0,0-.363-.756L9.022,43.888a.746.746,0,0,1-.281-.584v-.365a.747.747,0,0,1,.746-.746h.271a.746.746,0,0,1,.622.333,2.681,2.681,0,0,0,4.463,0,.746.746,0,0,1,.621-.333h.271a.747.747,0,0,1,.747.746v.48a.739.739,0,0,1-.219.527l-2.4,2.4,1.368,1.368,2.4-2.4a2.664,2.664,0,0,0,.787-1.9v-.48a2.684,2.684,0,0,0-2.681-2.681h-.271a2.678,2.678,0,0,0-2.232,1.194.747.747,0,0,1-1.243,0A2.678,2.678,0,0,0,9.76,40.257H9.489a2.684,2.684,0,0,0-2.682,2.681V43.3a2.673,2.673,0,0,0,1.006,2.1l3.832,3.065V53.8H8.258v-2.29a5.013,5.013,0,0,0-1.8-3.915A9.633,9.633,0,1,1,19.094,33.052ZM40.675,21.871h-2.9a3.871,3.871,0,1,0-7.741,0h-2.9a.968.968,0,0,0-.968.968V36.386a.968.968,0,0,0,.968.968H31a.968.968,0,0,0,.968-.968v-.968a1.935,1.935,0,1,1,3.871,0v.968a.968.968,0,0,0,.968.968h3.871a.968.968,0,0,0,.968-.968v-2.9a3.871,3.871,0,0,0,0-7.741v-2.9A.968.968,0,0,0,40.675,21.871Zm2.9,7.741a1.937,1.937,0,0,1-1.935,1.935h-.968a.968.968,0,0,0-.968.968v2.9H37.772a3.871,3.871,0,1,0-7.741,0H28.1V23.806H31a.968.968,0,0,0,.968-.968v-.968a1.935,1.935,0,1,1,3.871,0v.968a.968.968,0,0,0,.968.968h2.9v2.9a.968.968,0,0,0,.968.968h.968a1.937,1.937,0,0,1,1.935,1.935Z" transform="translate(0 -0.549)" fill="#fff"/>
    <path id="Path_153" data-name="Path 153" d="M60.287,21.5H58.458a.875.875,0,0,1-.851-.626,23.209,23.209,0,0,0-2.164-5.216.878.878,0,0,1,.157-1.048l1.3-1.3a.968.968,0,0,0,0-1.367l-6.59-6.59a1,1,0,0,0-1.368,0l-1.3,1.3a.877.877,0,0,1-1.045.157,23.266,23.266,0,0,0-5.219-2.165.874.874,0,0,1-.624-.85V1.968A.968.968,0,0,0,39.787,1H30.468a.968.968,0,0,0-.968.968V3.8a.874.874,0,0,1-.625.85,23.278,23.278,0,0,0-5.217,2.165.881.881,0,0,1-1.047-.156l-1.3-1.3a.968.968,0,0,0-1.368,0l-6.59,6.589a.968.968,0,0,0,0,1.368l1.3,1.3a.879.879,0,0,1,.157,1.046,23.189,23.189,0,0,0-2.164,5.217.875.875,0,0,1-.851.626H9.968A.968.968,0,0,0,9,22.469v4.658h1.935V23.437H11.8a2.816,2.816,0,0,0,2.714-2.044A21.284,21.284,0,0,1,16.5,16.612a2.818,2.818,0,0,0-.473-3.368l-.612-.613,5.221-5.221.612.613a2.815,2.815,0,0,0,3.369.471,21.312,21.312,0,0,1,4.78-1.984A2.815,2.815,0,0,0,31.436,3.8V2.935h7.383V3.8a2.815,2.815,0,0,0,2.042,2.714,21.3,21.3,0,0,1,4.782,1.984,2.817,2.817,0,0,0,3.368-.471l.613-.613,5.222,5.221-.614.612a2.818,2.818,0,0,0-.472,3.368,21.3,21.3,0,0,1,1.984,4.782,2.816,2.816,0,0,0,2.715,2.044h.861v7.382h-.861a2.816,2.816,0,0,0-2.714,2.044,21.284,21.284,0,0,1-1.985,4.781,2.818,2.818,0,0,0,.473,3.368l.612.613-5.221,5.221-.612-.613a2.817,2.817,0,0,0-3.369-.471,21.312,21.312,0,0,1-4.78,1.984,2.815,2.815,0,0,0-2.044,2.714v.861H31.436v-.861a2.815,2.815,0,0,0-2.042-2.714,21.3,21.3,0,0,1-4.782-1.984l-.953,1.684a23.266,23.266,0,0,0,5.218,2.165.874.874,0,0,1,.624.85v1.829a.968.968,0,0,0,.968.968h9.319a.968.968,0,0,0,.968-.968V50.458a.874.874,0,0,1,.625-.85A23.278,23.278,0,0,0,46.6,47.444a.878.878,0,0,1,1.047.156l1.3,1.3a.968.968,0,0,0,1.368,0l6.59-6.588a.968.968,0,0,0,0-1.369l-1.3-1.3a.879.879,0,0,1-.157-1.046,23.189,23.189,0,0,0,2.165-5.217.875.875,0,0,1,.85-.626h1.829a.968.968,0,0,0,.968-.968V22.469a.968.968,0,0,0-.968-.968Z" transform="translate(-0.258)" fill="#fff"/>
    <path id="Path_154" data-name="Path 154" d="M35.386,45.772A18.386,18.386,0,1,0,17,27.386h1.935a16.441,16.441,0,1,1,8.225,14.251l-.969,1.674a18.379,18.379,0,0,0,9.194,2.461Z" transform="translate(-0.517 -0.259)" fill="#fff"/>
  </g>
</svg>
