<svg xmlns="http://www.w3.org/2000/svg" width="64.02" height="63.004" viewBox="0 0 64.02 63.004">
  <g id="team-connection" transform="translate(-0.5 -0.9)">
    <path id="Path_168" data-name="Path 168" d="M42.048,25.454H15.92a13.063,13.063,0,0,1,26.127,0Z" transform="translate(3.776 2.71)" fill="none" stroke="#282728" stroke-linecap="round" stroke-linejoin="round" stroke-miterlimit="10" stroke-width="3"/>
    <path id="Path_169" data-name="Path 169" d="M27.422,15.1c-3.167,0-5.74-3.8-5.74-6.964a5.74,5.74,0,0,1,11.479,0c0,3.167-2.573,6.964-5.74,6.964ZM57.681,62.4H31.556a13.063,13.063,0,0,1,26.125,0Z" transform="translate(5.339 0)" fill="none" stroke="#282728" stroke-linecap="round" stroke-linejoin="round" stroke-miterlimit="10" stroke-width="3"/>
    <path id="Path_170" data-name="Path 170" d="M46.682,35.075c0,3.164-2.564,6.964-5.729,6.964a4.42,4.42,0,0,1-2.4-.753,6.352,6.352,0,0,1-1.623-1.506l-.036-.036a7.878,7.878,0,0,1-1.682-4.671,5.735,5.735,0,1,1,11.47,0Z" transform="translate(9.008 7.305)" fill="none" stroke="#282728" stroke-linecap="round" stroke-linejoin="round" stroke-miterlimit="10" stroke-width="3"/>
    <path id="Path_171" data-name="Path 171" d="M28.125,52.387H2a13.063,13.063,0,0,1,26.125,0Z" transform="translate(0 10.016)" fill="none" stroke="#282728" stroke-linecap="round" stroke-linejoin="round" stroke-miterlimit="10" stroke-width="3"/>
    <path id="Path_172" data-name="Path 172" d="M19.244,35.075a7.964,7.964,0,0,1-1.683,4.669l-.036.036a6.379,6.379,0,0,1-1.635,1.506,4.409,4.409,0,0,1-2.389.753c-3.165,0-5.741-3.8-5.741-6.965a5.742,5.742,0,0,1,11.483,0Z" transform="translate(1.563 7.305)" fill="none" stroke="#282728" stroke-linecap="round" stroke-linejoin="round" stroke-miterlimit="10" stroke-width="3"/>
    <path id="Path_173" data-name="Path 173" d="M15.47,41.553a22.1,22.1,0,0,1,26.779,0M28.86,22.667V37.036" transform="translate(3.654 5.497)" fill="none" stroke="#282728" stroke-linecap="round" stroke-linejoin="round" stroke-miterlimit="10" stroke-width="3"/>
  </g>
</svg>
