<svg xmlns="http://www.w3.org/2000/svg" width="28" height="28" viewBox="0 0 28 28">
  <g id="Group_11" data-name="Group 11" transform="translate(-1615 -28)">
    <circle id="Ellipse_5" data-name="Ellipse 5" cx="14" cy="14" r="14" transform="translate(1615 28)" fill="#ffff05"/>
    <g id="Group_10" data-name="Group 10" transform="translate(1620.999 35)">
      <path id="Path_50" data-name="Path 50" d="M11.646,31.4h0c-.868,0-3.986-.286-7.67-3.969-3.1-3.1-4.236-5.414-3.926-7.985a4.193,4.193,0,0,1,.257-1.034l0-.005a4.138,4.138,0,0,1,.583-1.028.5.5,0,0,1,.038-.043l.318-.323A2.053,2.053,0,0,1,4.162,17L5.354,18.2a2.053,2.053,0,0,1,0,2.9l-.079.079-.011.011-.48.451a15.9,15.9,0,0,0,2.173,2.815,15.824,15.824,0,0,0,2.855,2.193l.546-.545a2.053,2.053,0,0,1,2.9,0l1.147,1.147a2.053,2.053,0,0,1-.012,2.916l-.323.317a.5.5,0,0,1-.042.037A4.1,4.1,0,0,1,13,31.1a4.378,4.378,0,0,1-1.059.284A2.7,2.7,0,0,1,11.646,31.4ZM1.251,18.774a3.2,3.2,0,0,0-.2.786v.005c-.269,2.226.785,4.3,3.637,7.152,3.41,3.408,6.186,3.673,6.956,3.673h0c.119,0,.182-.007.183-.007a3.4,3.4,0,0,0,.808-.222,3.075,3.075,0,0,0,.748-.422l.3-.3a1.042,1.042,0,0,0,.006-1.48l-1.147-1.147a1.042,1.042,0,0,0-1.474,0l-.813.813a.505.505,0,0,1-.6.086l-.082-.043c-.047-.025-.1-.05-.145-.078a16.53,16.53,0,0,1-3.191-2.426,16.825,16.825,0,0,1-2.432-3.195c-.03-.054-.051-.1-.068-.132-.009-.019-.018-.038-.03-.061a.505.505,0,0,1,.1-.613l.757-.712.074-.073a1.042,1.042,0,0,0,0-1.474L3.448,17.718a1.042,1.042,0,0,0-1.48.006l-.3.3A3.122,3.122,0,0,0,1.251,18.774Z" transform="translate(0 -16.402)" fill="#282727"/>
      <path id="Path_51" data-name="Path 51" d="M257.265,89.535a.89.89,0,0,1-.889-.885h-2.45a1.381,1.381,0,0,1-1.38-1.38V86.34a1.381,1.381,0,0,1,1.38-1.38h.327a.505.505,0,1,1,0,1.011h-.327a.37.37,0,0,0-.369.369v.931a.37.37,0,0,0,.369.369h2.955a.505.505,0,0,1,.505.505v.26l2.186-1.6-2.186-1.6v.26a.505.505,0,0,1-.505.505h-.817a.505.505,0,1,1,0-1.011h.312a.888.888,0,0,1,1.413-.713l2.516,1.841a.888.888,0,0,1,0,1.433l-2.516,1.841A.885.885,0,0,1,257.265,89.535Z" transform="translate(-244.641 -81.957)" fill="#282727"/>
    </g>
  </g>
</svg>
