<svg xmlns="http://www.w3.org/2000/svg" width="89.341" height="75.41" viewBox="0 0 89.341 75.41">
  <g id="web-analytics" transform="translate(-1.696 -5.486)">
    <path id="Path_298" data-name="Path 298" d="M8.023,9.694H7.756a1.838,1.838,0,1,0,0,3.676h.267a1.838,1.838,0,1,0,0-3.676Zm5.973,0h-.267a1.838,1.838,0,1,0,0,3.676H14a1.838,1.838,0,1,0,0-3.676Zm5.974,0H19.7a1.838,1.838,0,1,0,0,3.676h.267a1.838,1.838,0,1,0,0-3.676Z" transform="translate(3.538 3.526)" fill="#fff"/>
    <path id="Path_299" data-name="Path 299" d="M91.037,74.057V12.323A6.845,6.845,0,0,0,84.2,5.486H8.56A6.918,6.918,0,0,0,1.7,12.375c0,10.938.027,61.365.027,61.683A6.846,6.846,0,0,0,8.56,80.9H84.2A6.846,6.846,0,0,0,91.037,74.057ZM5.4,12.323A3.106,3.106,0,0,1,8.54,9.207H84.191a3.172,3.172,0,0,1,3.168,3.168V20.91H5.4ZM87.361,74.057A3.165,3.165,0,0,1,84.2,77.22H8.56A3.165,3.165,0,0,1,5.4,74.057V24.586H87.361Z" fill="#fff"/>
    <path id="Path_300" data-name="Path 300" d="M9.969,56.789H20.306a1.837,1.837,0,0,0,1.838-1.838V38.967a1.837,1.837,0,0,0-1.838-1.838H9.969a1.837,1.837,0,0,0-1.838,1.838V54.951A1.837,1.837,0,0,0,9.969,56.789ZM11.807,40.8h6.661V53.113H11.807ZM27.2,56.789H37.539a1.837,1.837,0,0,0,1.838-1.838V29.062a1.837,1.837,0,0,0-1.838-1.838H27.2a1.837,1.837,0,0,0-1.838,1.838V54.951A1.837,1.837,0,0,0,27.2,56.789ZM29.04,30.9H35.7V53.113H29.04Zm15.4,25.889H54.772a1.837,1.837,0,0,0,1.838-1.838V32.681a1.837,1.837,0,0,0-1.838-1.838H44.435A1.837,1.837,0,0,0,42.6,32.681v22.27A1.837,1.837,0,0,0,44.435,56.789Zm1.838-22.27h6.661V53.113H46.273V34.519Zm15.4,22.27H72.005a1.837,1.837,0,0,0,1.838-1.838V22.1a1.837,1.837,0,0,0-1.838-1.838H61.668A1.837,1.837,0,0,0,59.83,22.1V54.951A1.837,1.837,0,0,0,61.668,56.789Zm1.838-32.854h6.661V53.113H63.506Z" transform="translate(5.392 12.38)" fill="#fff"/>
  </g>
</svg>
